<mxfile host="app.diagrams.net" modified="2023-08-17T12:04:53.981Z" agent="Mozilla/5.0 (Windows NT 10.0; Win64; x64) AppleWebKit/537.36 (KHTML, like Gecko) Chrome/115.0.0.0 Safari/537.36" etag="pOLCJnoRGHBFKsZGnBgp" version="21.6.6" type="github">
  <diagram name="第 1 页" id="rbtM4l9Ch5BxcWsQ4oDu">
    <mxGraphModel dx="1434" dy="790" grid="1" gridSize="10" guides="1" tooltips="1" connect="1" arrows="1" fold="1" page="1" pageScale="1" pageWidth="827" pageHeight="1169" math="0" shadow="0">
      <root>
        <mxCell id="0" />
        <mxCell id="1" parent="0" />
        <mxCell id="s5YXiQ0zcCECfN7fwI3W-1" value="&lt;font style=&quot;font-size: 19px;&quot;&gt;指令选择&lt;/font&gt;" style="text;html=1;strokeColor=#6c8ebf;fillColor=#dae8fc;align=center;verticalAlign=middle;whiteSpace=wrap;rounded=0;" parent="1" vertex="1">
          <mxGeometry y="20" width="130" height="30" as="geometry" />
        </mxCell>
        <mxCell id="s5YXiQ0zcCECfN7fwI3W-5" value="&lt;font style=&quot;font-size: 16px;&quot;&gt;Lowering过程：IR转selectionDAG&lt;/font&gt;" style="text;html=1;strokeColor=none;fillColor=none;align=left;verticalAlign=middle;whiteSpace=wrap;rounded=0;" parent="1" vertex="1">
          <mxGeometry y="70" width="310" height="30" as="geometry" />
        </mxCell>
        <mxCell id="_IsiIi9J9AR4bLTN5a5e-1" value="&lt;font style=&quot;font-size: 21px;&quot;&gt;DAG图组成&lt;/font&gt;" style="text;html=1;strokeColor=none;fillColor=none;align=left;verticalAlign=middle;whiteSpace=wrap;rounded=0;fontStyle=1" vertex="1" parent="1">
          <mxGeometry y="140" width="130" height="30" as="geometry" />
        </mxCell>
        <mxCell id="_IsiIi9J9AR4bLTN5a5e-2" value="&lt;font style=&quot;font-size: 21px;&quot;&gt;selectionDAG表示架构无关的底层数据依赖图&lt;/font&gt;" style="text;html=1;strokeColor=none;fillColor=none;align=left;verticalAlign=middle;whiteSpace=wrap;rounded=0;" vertex="1" parent="1">
          <mxGeometry y="190" width="430" height="30" as="geometry" />
        </mxCell>
        <mxCell id="_IsiIi9J9AR4bLTN5a5e-3" value="" style="shape=image;verticalLabelPosition=bottom;labelBackgroundColor=default;verticalAlign=top;aspect=fixed;imageAspect=0;image=data:image/png,iVBORw0KGgoAAAANSUhEUgAAAn8AAAGWCAYAAAAJ7eUsAAAAAXNSR0IArs4c6QAAAARnQU1BAACxjwv8YQUAAAAJcEhZcwAADsMAAA7DAcdvqGQAAIFKSURBVHhe7d0HfBN1Gwfwp5S9995L9l4CAiJbpgiyEURRhggqiiAqoCDgFnhRBEERZE+ZIlP23hvZe29a+t7v6V1JQ1LSNi1t7vflc5+SyyW5lfs/9/xH/DZt2hRUsGBBISIiIiLfF8f8S0REREQ2wOCPiIiIyEYY/BERERHZCIM/IiIiIhth8EdERERkIwz+iIiIiGyEwR8RERGRjcTI4O+bb+JJkiSJQ6Y//4xrPkPecGnzZpn9zDMyI2dOnTb06CEBd+6Yz8ZONw4dkn8aNdK/FDXuGOfIsGHD5I033pBTp06Zc4mIKLaJ8YM8DxkST3LlCpJXXgkw5/i4oCC5unu37B8xQs4uWyaB9+5JyqJFpfC778rFjRslQ7VqkrZsWXPhyLuwbp0cnTRJSg0ZInETJTLnPj3HZ87Uv9mbNNG/nkLQt8nYR2W++kqS5c1rzo1+CKxXt2qlx82Rf4IEkrF6dSnQvbukKFTInBvM3WvKfv+9ZGvY0Hz0uMD79+X8ypVybPJkuXHwoNw+fVpSlykjBbp0kTvnzomfv3+492NY5s6dq0Ffx44dJX78+OZcIiKKbVjtG8Nc+PdfOfjzz1L4gw+k4d698tLRo1LOCAIO//abHB47VoICA80lfVPQgwc6hRcCvudnz36qgR+kKV1a6hoBddZGjaT+1q3y0rFjOjXat0+KfvyxHDKO4YU1a8ylg+E1jfbv1+UqjR8vuVq3lipGQH526VIJuHXLXCo0zN85cKA8uHFDKvzvf1JrxQppfOCAlDduGm4dPy5Hf/89QvsxLCdPnpQsWbIw8CMiiuUY/MUgD+/flzNGgZ/vjTckac6c4hfHODx+fpI0Vy4p9cUXkqJwYXNJinWM45g4c2Yp2KuXHJsyRW7+95/5xCM4/qcXL5bMtWrpsUYm8NaJE+azDoKC5MiECZKySBHJ3rix+MU1m0UYn5EgdWoNHrM3bSp+8eIFzyciInIQLcEfkhc//xxXqlVLqG34ChZMJF26xJfly/3l3Xfjy9WrfuaSEXf6tJ9+xosvJgj5jM8+iycXL7p+74cPRVau9Je2bRNI1qyJQq3Tp5/Gk+PHH3+dtR116gRvR8WKCeXLL+Ppa774Ip4YZXekBBmFesDt2xJ4964555GE6dNL2vLltSovFOM1V7Zvl1WtWoW04furbFnZ8/XXcu/iRXOhyEM2af1bb8msfPn0M+YWLy5b+vTR+e5gWw6OGSNLqlcPec2Gbt3k3MqVsvm99+T+1avmkiJ7v/1Wl9ncu7dO1rZY0+b333+sWhSPMd9xOVRjhwnV6rt26bZY7R6XNWggJ2bP1mpUR1bbyIWVKsn1Awfk1IIFsrR2bX0N/uJxEE6kcEAAmN54v1Pz5plzHrl95ozcu3BBq/njJU+uxxuZYGd3z5+Xa/v2SaaaNTXgcyV327ZerfIlIiLfEeXB3/nzftKzZ3zJkiVI5s+/awRQt2XnzjvStWuAjB8fVw4d8tNALDJOnvSTbt3iS0CAyNix9+XmzduyffsdKVPmoQZyN248XkAuXuwvkyf7y4AB941A747s3XvHCOAeGK+LI0uX+su9e6Ffg7gAgR7WdfLke7odq1fflaZNg7fj7Fk/iWyNLNqFoY3Xtr595fSiRcHBkRGsKKOQL2wEOs7t/RAc7Bo8WAp07RpcTXzsmNRavlxSFi4sG95+W9uCRRYCn009e0pWY91eNAIifMaLGzdKtvr1ZfsnnzxWjQkIUPCaxFmyyPNz5+pr6huvfaZLFzn866/BHTOsbTMUfOcdXab00KE64f+OU+lhw3T/OMJjzMfz2HZUtYbJ+Lzjs2bJuRUrpPRXX4VUtaK6OJERlO0eMiRUNSuqY1/ctk3bWSLTdmnDBnlu0iStiq8wapQcHjdOzhn7OrxSlSih7fOcO9mg/V6qYsUkQapU+jhdxYpy0QhmHYNkuGkE3HGTJpV4xhTd4lpZRiIiirWiNPhDoubHH+NK69aBUq9eoCRJEjwf5Ufhwg9l8OD7kjNnkKB2MzKyZg2SGTPuyVtvBUiGDEGaDEGzpOrVAyVFiiANzFxBR5Js2R59fsqUQdKhQ4CULv1QEiR4FJhYsFyBAkG6nPU4b94gefvtB5I8eZA4J+UiIl2lSlJhzBi5ZgQzq1q0kNkFCsjqtm3lxJw5j2UEERQcnTxZig8YoK+zOmzENXZ05tq1pfinn8rh8eMj1ZMX2bCjEydKgR49JEvdupqRgjjGDsZnoqPICSO4u3vhgs4HvAYdVlD9iNdgfQDVk+jsUMoIVpPkyOE2axVV0JHm2p49kvf11yVu4sTmXGM1jAOJoDp95cpy5PffQwWl8ODmTYmfJo0UNYJyVKtivZPmzi0FjX1yeskSra4ND3zeg2vXQrXJQ9B5yQiosU+t/YJ9hP194/BhfWxBu894yZLpMYgut7B+ly4Z35ds5hwiIoqtojT4Q0bu1i0/DaZcyZgxSL777n5IMBVRzlW4VrVvixYJZOdO15tYu3agVKgQaAR7j6p9mzdPIH/95S9Dh96X7NlDrxPK2Q8+eCAHD/qFqvbt3Dm+fv7AgQ90GW9IkjWrZsJeWLhQGhoBS6kvv5SbR4/Kmvbt5bbDEBuYFz9lSm0f6Armx4kXT24eOWLOCb+7585pkJm6RAlzTmgJM2SQJEZAcHXnTnOOyO2TJzWYQebMFbym7Hff6bpHJ2T80j37rPi7OVCpiheXq0ZweO/KFXNOsPhGoJWtQYNHbessRrSPqu2HXuiEg2pcSJ4/v/4FBPPpq1SR08Z5EIS0dhhwnJa9+GKoKnBUWaPqOrJ27dolr776qqQxAuACxs0IERHFblEa/D186CcJEyIjFrngLixI0kybFlczjJ07P5AjR+5olezu3Xdk5Mj7mt1zBcmV5557KL/9ds8IUoOrff/4455m8IYPj2e8h7mgAyTWOnUKkIULg6uv//33rrHsA/n7b3+ZM8ffOWHkFQg4tKPA229rFg3VwRa0eTvy228yywgYHAt9a8L8Q+PGaY/QiHpofMalTZtkbrFiLj8D0+5hw0K3LzSiYf+ECYNTozEI9oO/Q8bPGTJyAdevy/3Ll805UQPtBOOlSPGoQ4Zx4lxcu1azu3MKFw61bzcax/3i+vVy79Kl4GVNyAI7BoQIqKvPn/+omnzoUCkxcKDbADw8ihQpIr/++qtm/vaZQSoREcVeUVo6x4kTJHfvoi1c1FXvoUp36dI48u2396Vy5Ych2TfEHalTB0nSpJ5HZEjs1K0bqH/RicMTyZIFyWuvBWjG8MSJyG3n5a1bZefnn7vO8hjRavICBbQtnQWZs7yvvaZDfFiFvqspXYUK5ivCD9WLqA5tsGOHy/e2phzNm5uvMBg7X6uokRKNQbAtgbdvm48eh6AsbvLkEh9Vu1EIWT4E9FY1PY7ppS1bdLgW5/3a5NAhSV2qlFZZW9CO8v6VK5p1jC5JkiTRzN8JV72PiYgoVonS4C9z5uDAa/Nm1x+DNoHIss2aFfHGcjdv+hkBnojZFC2Uffvi6OQMvYvRy/jSJdfBWqJEjweMGzbEkaFD47nM7qGtn1NfhAhBJg8dOO44BHiObh8/Lsly5zYfibY7Q+/fm0aQEFXQyxhj513ets2c82SJMmXSv+6qHNEmcM9XX2kPW1fQxu4xxo537u0bXhmqVpULa9c+1qvXgl7TKQsVCulwERUCbtzQY5ylTh1zTnBbxCTZs0sSI6hzhsxvxuef1yFgrPVObOxfHBNkZKNbwBOqn4mIKOaL0uAPiY033wyQESPiatWoVW6gDPv33zjSqVMCI3gTqVkz4m2msmZ9qFm+qVP9Bf0aEJydO+cn334bTwYOjKfr4AwJKfQyfu+9+LJ1a5yQ9cJr0XZw61Z/KV8+dNYKzbq+/z6uBoAYVsYKAhGPjBkTV3LnDtIezZGF9nkbu3XTwMnqSID2cxhW5Pzq1ZLxhRd0HqDtWr5OnWTfiBFaHfzg+nXzGWMbjddiSJMNXbvq3wjz85NcrVrpr42gM8Q9VImaG48M5Q1jfbf27StnlizReYCMVv7OnUN+pcTKZGKd0Ht17WuvSYBx4DPVqKHzHSG7eWr+fA2IkImztgNDumz54INIZbvQAxodTnYPHqxt5Cz4DIyviJ67udu00W32NmwLgvTtAwZo+8GkefLofAR0COwQ4D3WptCEoV9QFX3nzBl9jOXyduyoQ+a46giEbcO5wnH+iIjIlWj5eTeMtYfhUKZP99ehVNCZ4vnnA6V9+wApWzY4eLMgC9i6tfs0WqpUQcYy93QYF8uVK34amE2eHFfH56tWDe8dKC+8EKhj/f3yS1zp3/+BEew90CwdMn+DBsWTdu0CNChdtMhfVq2KI8WLP5SmTQOlY8cA/RxHyPyhKrhq1UBtY7hkSRw5c8ZPnn32ofYQfvHF4OriyEC171kjAMlcs6Yc+N//5NyqVdorFNm+nEYAhiDMsZeqBQHR0T/+kOPTpmmVIjp5IIhCkJGtSRNJmC6duaQRXBoByFojcEDQ5g46m2BypEGKEYAeGT9eruzcKQ8fPNAAJkvt2pKzRQvt9OEcNKEd4OEJE+TEzJk6WDHauWV47jnJ3a6dpClTJngQa2dGYIntRjtCdCLBcC5pypWTPO3ba+cHx84aGBsQkzvYb8+OHRu6Q4zx/q5+Pg9BdOa6dUO9v/PPruVo1kxKDBqk/9/Wr5/8N3Wq/h/rWNnY/2hf5/waC5bBz7sVfu+9kMDP1bHAL3wgQwnoaLP+zTdDjV2IjjLZzCFtrGOyf+RIub5/v87Dscb4f3lefVWS58vn1UB21KhRxs1WVmlgnFdERBR7xfjf9iWimIG/7UtE5BuitNqXiHxHjRo15MaNG/Lmm2/q7/wSEVHsxMwfERERkY0w80dERERkIwz+iIiIiGyEwR8RERGRjTD4IyIiIrIRBn9ERERENsLgj4iIiMhGGPwRERER2QiDPyIiIiIbYfBHREREZCMM/oiIiIhshMEfERERkY0w+CMiIiKyEQZ/RERERDbC4I+IiIjIRhj8EREREdkIgz8iIiIiG2HwR0RPdPXqVenSpYts3brVnBN7rVu3TsaMGWM+otgi8N492fz++zIjZ86Q6YJxLMNy89gxWVK9esjyyxs3lvtXrpjPEtmX36ZNm4IKFixoPqSY4PjMmfo3e5Mm+tdb7t69K0OHDpXNmzebc1zLkiWLfPHFF5IyZUpzjm9ZsGCB/q1bt67+defkyZPy8ccfy+XLl805wTJlyiSDBg2StGnTmnN8H4K/jz76SF5//XUpWbKkOTd2mjt3rh7bt956y5wT2jEjYMBxv379ujnHtTp16oS8x9ixY2X27Nn6f0ft2rWTpk2bmo9Cu2cEM19//bUGo67EjRtXPv30UylatKg5hywBd+7Ilg8/lFwtW0q6ChXMuWG7ceiQ7Pz8cylj7PP4qVKZc73j4saNcn71ainUs6c5hyhmY/AXA/03ZYr+zdG8uf71FgR/I0aM0MIop3EXDCgIoUGDBvoXBd+oUaOkT58+Phv8OW+zJyLyGoqZPAn+pk+fLl27dpWECRO6/d64eg8Eyd9//728/fbb4f7+IKuK9+3du7d+LrkX04I/ZCDPLV8uRYx1IooNWO1LRD4NGTZkajt27ChfffWVrF27Vvbs2aNBGqqyMZ07d85cmojI9/lM8Bf08KGcX7VKVhp3grPy5dNpxUsvyYnZs/VuD2n5UIKC5OquXbLeuHOf/cwz2h5kWYMGunzg/fvmQsEubd6syyysVEmuHzggpxYskKW1a+tr8BeP8fmPMT9jQ7duMrd4cX2P1W3bypmlS2XXkCFy2an91N5vv9X33Gzc+WOy2qlYE9q7oN3L04CMxrx586Rnz57SpEkTzYJ89tlncurUKXOJRx4a+2L06NHSqFEjnZDNwDwUuqg2xOsHDx4s165dM18R7L6x3+fPny8dOnTQ1+EvHp8/f14LaMxD9ZolyNi/KMR79eoV8lktjeOP9lzOVbWA12IZPI/Jeo01YZ0QKHgD9guq2Js3b67vjW2ZPHmy3Llzx1wimLVOmPr16/fY85s2bdJ9jefbGucOslIQ3m3H++J4Wcsiy2Tt7zZt2uhn/Pzzz49tv+P6YbIyoM7wOuw/LIPM8cWLF2X48OH6vpjwf8xzJbzHPbwSJEigVdaoYq1tfF9TpEghDx48kFKlSsnAgQM1CMyQIYO5NIWHYzs8XNPuGkH01r599VqHCf/HPEeO7fAc2+xhuWUvvqjzca1Fpi66BNy6Jes6dw7ZjvvG9W6HcW7guo15WN+Dxncr4PZt8xXBUF7g+VUtWsiB//1P/+84YT7eyxHeY+Pbb4csg32AMue/adNkQcWKut/2GDcpgXfvmq8I7e+//9brSvfu3eXMmTPmXKLw8Ylq36CAANn3449aIOZu1UoSpk+v8+8ahceRP/6QAyNHSqXffntUPWAsd3zWLLlz+rTkMQqauIkTB882AhQEeqeNYK7Qu+9K3CRJdD6gmmHnoEHi5+cnceLFk2eML16CVKnk5tGjWv2Q/803JaNxgXB0ZccOvZAU7dNHUhj72C9uXL3InDSCqJ1ffCEVjADJVZVFVFX7ooD+n3GBQvCVPXt2nWcV5lZ15oULF+QPY5+98cYbkihRIp138+ZN+dwIoPEaLJc5c2YN5nYZgS2Wfe+99yS9uc+d4f1v3LihgV7WrFmlRo0aWqX177//SrJkyaRYsWK6XIBxDCdMmKD/x4UtadKkur6LFy+WA0bAfeXKFf0cx6q0jUZAP3HiRA1eihQpou+LIGfDhg3a/gpVb1Y1nSPnbfZEeF6DgA3tuFoZ52Lq1Kl1Hs7NEydOaACIDJRje8Hx48frcu7e+7ZRWAwbNkyDu/z58+u8iG47IDjLlSuXbNu2TZ577jkpV66cntdLjZuSQoUKhZwbzvA6HMOw9gGCSlSZAoI2tA8MDAyUOXPmyPbt2+VD47uCY2uJyHGPjCNHjuj+zpYtm/j7+2ubPPx1dPz4cZk5c6a8aXynETi6qvbF8UXBi++So5hU7YvzAd/bnTt3mnPcw7HCeRlRCGCO/Pqrnud5jH2atnx5eWgc22PG+X7ReK60cf7GNb7vjnBtzFCt2mPXQHTI2GTc1BQ1AsdkefOac0OLqmpfbAeuvw+Nm4Ms9epJhipVtBxAGXNu5Uqt2i38wQehygaIaLUv9kGKAgXkvHE9zFKnjqSvXFn84sSRE8Z5kNoIPJPmzm0uGQzfDcd2ot26dZOaNWvq/4nCwycyf6cWLdILTUEjIEuIO3ijIMOE/2Ne7ldfFT+HC/zV3bvl2p49kvf110MCP8CXLm3ZsvoFPPL77xokOnpgBEHx06TRi1ICFOrGZ+DLWbBHDzm9ZIk8dMoYQmIjUMIyCPwAFw105MjWsKH4GwVLdEJB1sNYV3eFO6RLl06XsQI/QIGMrA7aN6Hwj2PsJzRGL1GihAYRrrJ/jlavXq2N4xE04H0RaFQy7uytwA8QMCGgbN++fUhwgPWtX7++BjzO2Sw0xkcmEne/ZcqUCSks8f5Vq1bV9loIQlBwRydkq3BnjqDCCvwA24z9jkIWASCyXZa8RgGHgAMFJ0wxCh8EPAi6ARkzBIA4NuCNbV9pFGSdOnXS4xDPuJnB8cQxCuvc8BTOBwQSZY3vEt7XOo5YTytzaQnvcY8M7EcEfvis1q1b643Oli1bzGcfwT7AdwDr4U4FI+BwDvxiGpwPqO7GzcCTpsgEfhbUiuCmOZ1xTuF6528cb9zAxjH+Xo/GLF5knV+zRvIZ340sdeuGBHnYHtzcI1i1OuR5y8n586Wwsd/w/nHix9fPQhnhHPgBzkncUOF7hfMUN35EERHrgz9UO1zAXZPxRbUCLEeYV8wI1hDUWc6tWCHpnn1W/I0vmiupjDuuq0ZweM9pSID4xp1rNiOAeexzjMASqfyHgYHmjGCpjOAmr3FR3WLcKVrVvhhqANUHRYx5qWNJr0kEJfv27ZNPPvkkpBoTWRBUya1fv95cyj30qkWQ6A6q4NYYF1wUqM5ZGARNpUuXllROd+oIlpInT+42WMF8XCCxXHRCNhTbinVzBeuFjMzp06fNOcG9q5ExwnwEeciQIUtoBUoIKJElTWzeqHhj25s1axZlvZWRScztVHDhOCLIw7G2ROS4Rwayfjh/sW4IjNAEAfsc60WRl6lWLUluZqZDGMcR14+n1VwlIjIYN1DJ3dSGpShUSK5s2yYPntATPDzyvvZacNLCQ7hJw83dDz/8oCMPEEVErA/+UFWLgiI8WbQHN26Iv0PGzxkygAHGl/u+F7IOuFiU+/FHaWAU6I3275eqM2ZIGiMQ3T5ggNy7dMlcKmZDdgZVDdWNO1NkTpApmDZtmgwZMsQrd56oFgTH6kBHCHqcszAIHJC9evnllzUYdZ4wf9myZXLr1i3zFVEDwcN3332nWSTA5yGwcAfnKl6D6kwLgjAEIAgA0YMUVTvY19aQPLt379YsmLUPYsq2R1ZEjntkICgtXLiw+ci4OTMCyypVqmgmOzqgqg7VydEF5xnakbo6R5ynyLSp9DWo1XGXGEA5E2h8/4KcbvSJYptYH/whUAvvnWW8ZMkk8HbohruOEFDGTZ5c4jtU23mLVbWctkwZbQ8T0yEThXHx3n33Xa1StAIbBDHIPiVxavsSEVbWx6rmdIZ1QEDkCJmwF154QYNQ5yosxymqx6TDeiGLZwVa2B8odN3BuYp96JjRwmPsS1RLoh0eAmoEfwcPHtR5yAI6ZtJiyrZHVkSOe2yGG4SzZ8+aj6IezqvorPb1FfeMm37nTn8WlDP+8eKFakZEFBvF+uAPd2JoGHtq/nxtlPsYo7BFQ130OrMCRKT1L6xd6/YLfmX7dklZqJB26IgofNb2Tz5x22MN7WDCgvaFj3kK1Sdom4ZG+a6q3xD0oMdpZKHNGdqeITNiZYMsCJaQAXPMlEFkq3VdBWj4rMgGGwjcjh496naAYKwvCmV0mrEgCEJmb//+/VptjOpOtK3EftmxY4d2mHFc/mlVaXtbRI47+RgXGTTcfD/NzBqaBV3fu9d8FBraiqcsVkwTCM7QO9dVGaTXbON89gbcQFg94H/77Tf9nhBFRKwP/iDLiy/q3dr+kSMlwCgoARcQDCmAXrX7vv1W8r32WkjVcMrChbU6dvfgwaGGIUCHDQzDgl5budu0QXrLfCb88Pn3rl6Vze+9p+/n2Bnk2r59cuyPP7R3lyvJCxTQYBYdU/A+eC2GjMGQCmg/6DzcQFRClglt2KZOnRqSoUFgg+ordALxFnRcQBCELIQVgOEvOjag16dj5wmIHz++tt9Cj9cVxsXaMXuEalEEUv3799e/ztDBYtWqVfq+Vjs0LIftQa/asDJ3T4Jez8jKoSoYGTvr4owAGr0uZ8yYIS1atND1d4Tep0uWLNEgCPsbASJ+2QGdP1D16dhzNDLbHtOE97iT70C763OrV+sICIBrHYa/2tavn9x+ikOYZDK+v8enT9chvELWzfj+nl22TK/lOZo2faxsSGzcrCEwvLB+vS6L6caRI7LLuKasadfOa018Dh8+rL3M8+TJo52iUANDFBE+MdQLIIuHIVqOjB8vV8yhDVIZhWfOli01OHTs1auMQhnB1f4RI/RLjbuzlMby6OWVuW7dUG0+MPzL6latQrJuOZo1kxKDBun/caH6zwiMAMFlZSOoS1O6tC67e8gQyVyvngZup+bO1fWKbxTimWrWlGe6dpXEWbLo6x5jrNs5IzjZbQQiV43X4H3TlCsnedq3l/RVqrhtj+IpBCH42SgEJI6QTXL1c1IojBGE/PXXX1oVhwIZQ7a8aOzXSZMmycKFC3XMNAxRgaAFHRXC+nksx2UdIcuIAAjVmejlic9B+zX0GsUQNa6Gz0CghsABbdwwUC/ab2HMNgxhgobRadKkMZd8BAEZhkQZN26cXkix3ahWbdiwoZQvXz4kMHP3827OUGWL8eIch1ZBj1cEZ2gvif2HbcEYc7hjd95uQIarb9+++vnojQqHDh3SIA7ZMdztO1/ow7PtWA8Et87H3FLPOE/RAcKx/RuOxY8//mg+epzj+YJtdByCwvE55/MNHTwwPqHVni8ixz06oB0c9q8zBOcDBgwI1anH3bLOcFysXwVx3mfO3H0fYxJc59xdA91dN62bcARIhydMkAOjRsndCxdCrr8YJmb9m2/K5W3bpOA77+gEGAcVkzvJjO/ws8ZxSGp+DzG+Ht7HcSxBZ87rZA3Zgs88anx/D/7yiw4JhvfO1bq1TujF7Aqu1buGDtWhbcBd+XNhzRr5t2PHkP3i7Bnju45e085Vy7gxxHBLuOHDaAC4VhBFlM8Ef+S7IjN2GsVePO4U3SI6Xl90QJUvRlwoXry4vPbaa3pzQBRRPlHtS74NnSmQrePFzl543IkeQS0FMvMYX5LfCYosBn8Uo+FuFz9ZhipAd0OCkO/hcScKDYPioxmGu19TIgoPVvtSjOLcdgoXOvwShfUTZOSbeNzpaULHDvyk3OlFi8w5odsvEvkaBn9ERERENsJqXyIiIiIbYfBHREREZCMM/oiIiIhshMEfERERkY0w+CMiIiKyEQZ/RERERDbC4I+IiIjIRhj8EREREdkIgz8iIiIiG2HwR0RERGQjDP6IiIiIbITBHxEREZGNMPgjIiIishEGfz7k2LFj0qVLF/1LMcPcuXNlwIABcvfuXXOOfVy7dk2+//57ad68uTRq1EiaNm0qb775pvz111/mEk/HunXrZMyYMeYj8mU3jWvhkurVZUbOnDotb9xY7l+5Yj7r2t5vvw1ZHtN/U6aYzxD5Dr9NmzYFFSxY0HwYO40dO1Zmz55tPnLv008/lZIlS5qPYq4FCxbo37p16+pfTyHoGzp0qPTu3VtyGhetp8Xd8WjXrp0GAHaC4G/r1q16TBImTGjOjX737t2Tr7/+WgMfV+LGjavfj6JFi5pzIuf+/fvyww8/SPbs2aVhw4aSIEEC85mnD8fk5MmT8tZbb5lzIu/69evSv39/OXr0qDnHtSxZssgXX3whiRIlcns8+vTpIxUqVDAfhbZz5049TgEBAeac0PC6Xr16xaj9HVPcOHRIdn7+uZQx9nv8VKnMuWHbNWSIJMudW3IYNzDednzmTP2bvUkT/UsUnXwi+AMEPqNGjdILZ8qUKc25j+A5XBhjQ/CHwgkaNGigf2Orq1evaubn7bffdnlM6OlBQIrzLKqC0uPHj8vIkSPlww8/jHHHPiqCP0tY7+3u+4Br1/Tp06Vr167hOhbIJuNmD9eJ2HBde9piWvBnZRSj4r2JnsQ21b5JkyYVf39/8xERRaWHDx9KUFCQ+ejpQtZz0KBB0rFjR/nqq69k7dq1smfPHg3E0EwC07lz58ylow6yq0mSJJE4cdjahoieLp/N/O3du1erVDp06GAuEQx35R9//LFcvnw5VDXwxYsXpV+/fnLmzBlJnjy5DBw4MKTq1KpqSZw4sXz22Wea1Zg4caKcP39e0qdPL61bt5YqVaq4vKjfuXNHq0AXLVqkn4nqGOxvVOkuW7ZMunXrpp8HT6q+dlWl46o670nV2yiU9+/fr9uAQhBVSJkyZdIq2apVq0r8+PHNJSO37eHN/Hm6Xo7HEJyrybDPkRHZsmWLPq5Xr568/vrruo54bopxxz1//nzdd5iH49yiRQspW7bsY9uB8wqfhWo9q8oOgc1vv/0mK1eu1Oo7tGOrVKmS+Pn56Wuc1896nat94Fhd2KlTJylWrJj89NNPuv3x4sWT2rVr67ohaHB26tQpbbu2Y8cOfYzX4j2w3ZifOnVqPY+zZs2qzzt6UuYvosd9yZIl8uOPP5qPHofzvWbNmuajYOE5HyMKxwz7GscGxx77u02bNvpdTJEihQZm3uCc+fvjjz+kSJEiemzcsVvm775xXVhvfGcuGNes0sb6pyldWnZ9+aWc/ecf8TfOt7zGNTufcR7HNW7YLWiHhylro0ZSasgQiWt87+DwhAmy3fj+QH7jPYt8+KH+3xVvZ/7OrVgha9q3l8TG97vSr7/KbaPs2D1smFw1vjv+xjU6Y/Xq8oxxTFMWLmyUtMHXBrC2xZ0czZpJCeNmBe9hubBmjfxr3LwEGtcsax/cu3BBdg0eLGeWLpXkBQpISeM1qYoXN1/xCM6T0aNHa3lTp04dee2117zynaLYzWeDvycVbu6qgRGwDDa+ULh4O7abwxcIhRoKeBQU7Y0vPQqNEydOyPDhw+WVV17RAMARAspvjS95jRo1pHz58hoooGA7cuSIBnoojFwFBVhvCG+1ryeFAQpaBKJnz57VdcY6AQrHXbt2yT/GBfiNN94ImQ8R2XYIT/AX3vU6ffq0jBgxQt5//323773GuGBu3LhRunfvrllfBH4IlDNkyKDt0NKmTavL4b3+/PNPDZbatm3rMhDAtnz33XdSuXJlWb9+vQYOCKrQqWGFUQggSHPcZxbn89IdHPN9+/ZpwIgMVZ48eeT27dsyfvx4PWcQGDiuF86hn3/+WYOwQoUK6bFB0DHBKAxxYS9gFAZhnT+eVPtG9LiDp9sdkfMxMrDfsE+zZcum5wTaoXqzRsA5+MM+wHkS1rGIScEfbiJx/XuSsG4sPIVqz8vbtsmdc+ek8HvvSfJnnpHAW7dkr3HNCAoMlKIffSR+Duc8grfDRpBVpG/fkODPgve6YRzb6Az+IMC4puwy3hOB6oMbNySfcZOZJHt28TNuiu4a23XACLoyvfCCpHPxPYlItS+24ZBRdqQ0bihuGjcweYxAObFxo4SOLdiXWV98UeI4BXaON6PeOG7kG3yq/gGFOAoo9CxE1sLbUBij8MNFGgUaCkU0aEcBgkDjwYMH5pLBDd5REOPCXK1atZDCC4Vo/vz55d1339XshquMWVQ6cOCAHDIuIK1atQpVoGI9kJ0oU6aMFkQolB2FZ9sjIrzrhXXAclfMnnvISHXu3Fnvbi3IIuXKlSukcEd1X7p06eTVV1/V7BXeGxMuhD169JBAo8DZZlxA3blg3GkjM/yeUVBh2/HaVEYh0rhxY68EJ8jk4bzIly+fvjeaKmB/oEoS22exspfYXmSVsCyOBwIazEOWzlti2nGPDNyMIfDDNQJBM46nlR32poULF+o1CBP+H5vghhi1D0+axo0b55UA4qYRsJUygs0UBQtqwBQ3WTLN4N0yzmFk0mKD+0bQF2gE4sU++USS5syp2wEJjZvMQj17yuklSzQQ9JaLxg1t3MSJpYhxY5U4c2bNKiY1rnPoOOIc+AFucq0ET7ly5fTaR+RTwV9m44uAizsuTlER/KHqDVk858wQggvchSN4sCCTgXnuek8iCMHdmFXlG11wZ48sgbu0P7JIyI4g0+UoPNseEeFdLwQK2IcI+OHgwYNauKMwR0CCAAnPIfgDzEO2q2LFio9tA2AeCj6sh7ttwUWzfv36UVZl8sILL4RkIy0ItrA+uJmwHD58WKuEUZ3sDK9HwOQtMe24RwbeB8PO5M6dW88fNAXAeYIsozehas0KkvB/ci/7Sy9JQqdgBMETMn8P790z58Rs/sZ3Matxk+/v4hxGMItM4KXNm805kZeufHnJVLt2SJD5JMgmI8OP8xEZ6ai6flHs4lPBnyOc8MiEhKcaxZtQoKBtHjIYMQkyOWjH5Q6CjVu3bml1ZlRCoT/THOoAwrteeIwMGbJGCEBQvYt2lKjaQEYHGUG8Z8aMGXV5LIPX9+3bNyQr4zzhObw+stmsqIb1w75CAOgKqnZii+g8H5H1KIz2VyZkbd21V/UWZE1z5MhhPgo/fEfwXYku+CxX3w3nCW2pUZ1IRvBnlDHxjePsTrykSSXg5k3zEVHM4LPBH9Lczp09ohMKFHQo8HZWIbJQ0KLAdQfVa8j2oNCKSgjQkB21RGS9UO2E90GGD1WmtWrV0uwv2s4hC4j3TGbceQMCJWQKP//885CsjKsJnS+e1g2Dp7At2FfuglSro0lsEFPOx6iC6uywOns8Cb4jOMejS3RX+/oCVPneD+Pm5IER+Dl2XiGKCXw2+POEqyorFDbeCNisdhXoNekKqvHQYB+9I11BdZQzrBsCysjAxR3Vn47ViI7QTg7VYmE10o8KEVkvZPUQAG3fvl3SpEmjj1HliapfzEOHHasdGaopn3vuOdmwYYN2oIjN0BkE242A1xmC3k2bNpmPYr6Yej5SzBSEa7NxHXSGauKnJdD4Lp6cO1cCXZzDATduyK1jxyRViRLmnNAQGD7G2D706vUWZHObNGmiTR7QiYoIbBv8oZ0RCkkryLJ6F6I3qNWJIDKQPcJdP4Z6QMN4K+BAoY3gBFWMyHig96izvHnzyqpVq7QxPNYLr8FQGOiFN2zYMJeBoafQ2QTvj16IjhkFfAY+Ez1ZMcQGqtuiU0TWC4EdMkfoEIAqPbRlQWCETCB64OL9HKHKD5lB9EBGj1XrmCCoRpuyGTNmaA/imB4cYrtxIUf2BZ07sP6YsE0Y0gEdMmKLmHo+UsyTKFMmeWh8N28cPBgcBBoQXB0wzp0jv/+uj5+G+MmS6XAv6PWLXrfWuqGTx55vvpHMtWsHd8xwguFZTs2fL1d379bXPDSCx6tGGbT5/fdlywcfSEAYGXFPIcGBcg7lCJrF+MLIHuQdPv3zbq7GFLOggEdhjzY1CMKsccWKFy+unUWQVUHbFgy74fyTSshWYLw9cBxjD43isZxjJw9UweFzMCYc2i1Z4/zhTgzVQa7aG6EgR4YKhTt6l+J9kf3A8CQYMsaxwe6TxgZ01bUf7x/ecf7Cs+1PWicLGsM7/hJCeNbLgs+ZM2eObiMCO1zsEEhgvTDP6vBhsT5j0qRJOhYkMqkIIBGEoNcu1t/q3IALJrKz7n6LFsthKBPHDhae/MyXtQ9xLjgv73i8nMfMs85HS1jj/IHj8CKuxoN05HzuRuS4h/czLBE57jGNu+PubmiNJ+0rRzim1rF0Pi7OHM+tmMpxnD/AUCrPGtcM9JQ9YXyfN/boofOh4Dvv6GRB7+Btn3wiF43XYkzALPXqyTPGNQSPN/fuHeq9nD/HFecx9Zw/3xmWq2zc0GNsQrCGesnz6qsavGH8PoxXiM4YGOevQPfukqJQIV32McZ5f864wXEcGzCNcRObp317SV+lSkgHEgSBWz/8UE4Y1zlXrHEGk+XLZ855BDdUnxj7CzUf+OvcoYzsy2fG+SOiYBEdJ5KIwscx+EvmVNMQE+DmAjcZGEIKiQMii63b/BH5GmTRLl26pJ0kiMjekClGj/bSZqaSyMLgj8hHoCoQbR3R29lbv/hARLEXxrJE8yerKQuRhdW+RLGU4882AS7wuMvHL5jE1qFRiGIL67d9Hbn6XV6imIjBHxEREZGNsNqXiIiIyEYY/BERERHZCIM/IiIiIhth8EdERERkIwz+iIiIiGyEwR8RERGRjTD4IyIiIrIRBn9ERERENsLgj4iIiMhGGPwRERER2QiDPyIiIiIbYfBHREREZCMM/oiIiIhshMEfERERkY0w+CMiIiKyEQZ/RERERDbC4I+IiIjIRhj8EREREdkIgz8iIiIiG2HwR0RERGQjDP6IiIiIbITBHxEREZGNMPgjIiIishEGf0REREQ2wuCPiIiIyEYY/BERERHZCIM/IiIiIhth8EdERERkIwz+iIiIiGyEwR8RERGRjTD4IyIiIrIRBn9ERERENsLgj4iIiMhGGPwRERER2QiDPyIiIiIbYfBHREREZCMM/oiIiIhshMEfERERkY0w+CMiIiKyEQZ/RERERDbC4I+IiIjIRhj8EREREdkIgz8iIiIiG2HwR0RERGQjPh/8jd85Xl6a/pLcC7hnzgnbpTuXpPrE6rLsv2XmnCdbcXyFVPu9mr6WiIiIKCbz6eAPwdi47eOkZaGWkiBuAnNu2OYdmif+cfylbKay5pyw3Q+8LyM3j5TauWtLmkRpzLnRo/OCzpJkWBKp8UcNuXH/hjmXYpLB/w7m8QnDuVvnpNiYYnoeY18REVHU8+ngb+GRhRJk/KuVu5Y5J2zX7l2TsdvHyqvFXpVk8ZOZc8O28cxG2X95vzQv2NycEzEIDhAkoBAMayowuoCcvnlaXzO67mhZ3ma5x+saGwxfP1ynmOTm/ZvSfGZz2XpuqznHPqJ62zMkySA7Ou2QfpX6mXOIiCiq+Wzwh0Dup60/yRsl35AUCVKYc8OGrB/Uz1tf/z7Jg8AHMmLzCGmQt4HkSZXHnBtxCOIQzN16/5ZOKBAxWY99LdBzBfsUU0yCGwisU8DDAHOO5/pU7CNLWy2NtcctMttOREQxk88Gf4uPLBZ/P3+PAzlk3n7d8Wu4gsVt57fJ/kv7NVNIREREFBv4ZPB3+8Ft7ejRvlh7jwO5VSdWaYajTu465pywBQUFabCItn65U+Y25z49x68flxazWkjqr1NLsuHJpMpvVWTfpX3ms6Fdv3ddui/ursuiKhnLFx9TXCbvmSyBDwPNpSIH+2f58eXaEQafk3x4cin1SykZt2OctJ/bXhYfXWwuGcxqvzhozSCdHKu6MdWdXFdu3b9lLv3IwSsHpfey3pJvVD5dDp+F/YD94Qzbjc481nvOOjBLz5Uv134pGb/LqOv42vzXtKoTrPZoeA7ri22xXmtN3238Tpd1tP38dsn2Q7aQZRyr6p05t3nbfHazVJpQSY8JtuWNv96Qy3cvm0uHtuvCLt0erDcm/B/z8D54P6wD1iUiIrrtgHVoMKVByPmF9cAxwv73BI4zjrf1OVgPrI8F59bSY0ulxC8lQpZJ92066TS/02PHPTL7l4jIV/lt2rQpqGDBguZD3/DX4b9kwKoBMrvZbG1T9CQIANCuqW6eutK1dFdzbth2nN+hQcyEhhOkaLqi5tyIQ8DRcX5HrSYsmaGkzrMawGMeHL5yWPos7yM/1/s5JKhFm0MUYCkTppQfa/8ohdMW1k4oaO/Yb0U/GVd/nJTOWFqXBVSHvzLzFcmW3CiQK/QOCVx3Xdwln636TDImySjf1vxW4vvH1/kRhd7SvZb0km9qfiOVslbS98Nn/7jpR/lq/Vcytv5YaZy/sbn0I87bHBYEt+jJjQC8e5nukitFLrkbcFcDzGn7psnUl6a67YSDY1c8Q3FZenSpvFLoFWleoLl29Plh0w/yfI7npVTGUuaSwVnhdnPayUeVPvK4I5AFx6fLwi56LmZOmtmc+zhs99pTa+X8rfMy7IVhUjFLRbl676r0WNJDb0p+a/hbqGOy7tQ6eWfJO/JZlc+kRs4aEscvjgZ6H/7zoS73bJZnPdqHTxLebZ+6d6rMPDBThjw/RLInz67zEKyhzeAnKz+R72t9L7lS5tL5jhyPO5afum+qfsf6V+7/2Lk4Ze8UwQ3Cx5U+ljp56miVOs6tP/f8KSO3jJSf6v4k5TKXM5cOFt79S0Tky3wu84dAbvSW0dKqSCuPAj9A1g+FQtMCTc05YUPh9Mv2X6Ri1opSJG0Rc27kJI2fVKY0mRIS+LmCdoVYxjmbiWBvcLXBGvgBCrGG+RpKswLNNDvp6Pddv2sQMqL2CMmXOp8GPJiKpy8ukxtPlgcPH8jsA7PNpSMnY9KMGkRZhSrWu1e5XlItRzVJHC+xzouMAmkKyJ439sg3Nb7RINbPz08SxUskbYu21c86cvWIuaRr0/ZO04C5fdH2+jqs57vl3w0V+EWnY9eOyaTGk+S5bM/pMUHgiuOKbBYynBYEOgNWD5Afav+ggS+WxbaXyFBCRtYZqTcJTwPWEecbjocV+AHWDfv0vQrvSd8VffU76g7O5YFrBsrei3tdBn7I5I3aMko7OzUr2CykLSWON5psjKozSgM9V72rPd2/RES+zueCP2RaLt656HHvWxQ26OHbpmgbzXp54tDVQ/LvyX+lc8nOWrA9bflT55fC6YIDP0dx48QNVdV258Ed+fvY39KicAuXWQ7MQ4GKzA2yIZFRPUd16VuprzSa2iik2hfVnx/884GMeXGM1MrlWQ/ssKCKGlXVqE7G+6NqD59VdlxZ2XNxj7mUe72ffZT5jAkwJJFzVgxBCjpbOAZM60+vl4RxE7q88cD2VM9Z3XwUvZYcWSLFMhRze9OFGxtkuHdf3G3OCQ1DM7WZ00bPQ1eBHyC7mSphKimRvoQ5JzTMj+cfz2XvZE/3LxGRr/Op4A8By+ito7WTh6eBHILFo1ePSqN8jcw5TzZhxwQplr6YFEwTu6rLA4ICNBhsMq1JSFsp5wnPIQt6N/Cu+aqIQ4YFPZQv97os19+7Lrtf363D7rSZ3UZOXD9hLhUxyL4OWz9MPl/zuVYVnutxTntEX3jngsxpNkeyp3iUefI1CFSQ8UK20pWwqpejEjKSyeMnNx89DjdKWPdTN06Zc0JDO118h09eP6kZaFfw+kVHFknab9O6PH8xf/6h+XL5DtvxERG541PB34YzGzTj42nWDwUNhmpB1VmOFDnMuWFDldrcQ3OlY/GOmmGITRL6J5QsybLIzJdnhgwf42qKqqFJkGVBYI6gcOi6oebciDl89bDMOzhPZrw8Q7OVViCEz8iUNJMkjZdUH/siVJmjWhOZXFfcdS6Jaqh6vX7ffacOBOxYd5yDrrxd5m2Z0XSGtkdFe0Zk5Z2lS5xOGuRrIBffuejy3LUmV+1JiYgomM8Ef1YgF54x96xgMTxDtaBNU6G0haRcptANymMDBKutCreS6fumuyxYvQVVey/PeFmzqq4kiZ/E/J9rrgIIBA5WL1y4cveKtpNMmyitOecRNOw/cPmA+cg7kIm6E/B4sIX96OlPB3pL+czltWMLOuk4QzvHZcc8/2lCT3i67TVz15Qd53aE6pnrCFWxOGZW21RnaKaA7GDPcj01SPxmwzd63B2h6jhenHg6zFJ0QScW9CbOOSKnbDi9wZxLRBR7+Uzwh8IAjcTbFWtnzgkbgkW09auXp57H7b7+u/afVjmhrV9sy/pZ0NYObQRbzmop285tCwkCUciiOq7/yv7a7ioyAQ0GBr5696q0ndNWO5g4ZqhWn1gtY7aNcRtwl89SXjucrDyxUtv04bX47eS6f9bVnr1WG0Z09vAz/g1bN0yDQqw/Ap83F7ypWSNX7cUiCllQ7LOv1n0VUmWJdqXo9IMhcqL7F0mQYUObOAyfsuXsFt12TDie6FnsjQHHLeHZ9nyp8ulxxfmDdbECN5xjCw4vkCH/DpHPq37+xM4+OHZfVPtCmwb8sPmHkPcBvHZAlQHy8YqPdRB3rIvFOleq/l5V/3oD2gOi5ziqmy/cvqDbTUQU2/nEUC8oHLot7qaFIgoXTzphYBgJjOn2R+M/tNDyxPebvpc1J9ZE6bAQGKamxcwWEhgUerw9DFg9uclkDVYtGBsPwZXlp3o/SevCrTXzUnNSzZBen6kTppZ5r8zTHr2A/bXixAr5dOWnuh/uBd7TQrVIuiLSo2wP/YzIbJ81bE3bIm21YwzG0zt546R2UsAQJEOrD9XgzRWs2+S9k6X/iv5afYntzpsqr3Qv211eKfhKqMDhzM0z0nNpTx3QG9uAtm6vlXhN2hRpI6/OfVUzgGgCgKFxkFVCBgfH3HnfWhyXdYZtwtA5E3dP1EAA62ENp1Ihc4WQc85537tSJVsVmfbSNM2AhnWsMI7eR8s/0vmA7UIvVwvG03t78duy6cwmfVwmUxkdSmXuwbn62BtDvYCn227BevX5p4+sOblGjwu2qWXhlvprNckThG4T6Lj9eN5aZ3TsqP9n/ZAx+Jy3HTcBGO4FgRneA0PdoJ0vqoRxDlvNOCKzfy04b7os6iJJ4iXR3vbOw8gQEcU2PhH8hXfMPStYRCH/bY1vHyu8XDl766w0nNJQBlYdqG0EiWKq8IyVSERE9uMT1b7//PePVMlexeMx987fPq8DBHcq0cmjwA9QvZY1eVbtrEAUU+HGBllWZMGJiIhc8clf+CCyI7StQztWTNObTtdes0RERM58aqgXIjtx/g3htN+k1Sw4fkqOgR8REbnDzB8RERGRjTDzR0RERGQjDP6IiIiIbITBHxEREZGNMPgjIiIishEGf0REREQ2wuCPiIiIyEYY/BERERHZCIM/IiIiIhth8EdERERkIwz+iIiIiGyEwR8RERGRjTD4IyIiIrIRBn9ERERENsLgj4iIiMhGGPzFAhcvXpQ333xTGjVqJHPnzjXnkq/jcScioqjgt2nTpqCCBQuaD2OvO3fuyOzZs2XRokVy+fJlSZAggVSuXFmnVatWaSGKebBkyRL58ccf9f+O8HyZMmWkbdu2kilTJp137949+frrr2XdunUSJ04c6d69u1SvXl2fu379uvTv31+OHj2qjwEFdceOHc1H3mUFAA0aNNC/0QHbPXjwYPORa8mTJ5eBAwdKzpw5zTkRt2DBAv1bt25d/fu02P24ExGR7/KJ4A+B3w8//CAlSpSQ5557ThIlSqSF9+LFi+WPP/6QQoUKyfvvvy8JEyY0XyFy7NgxmT59unTt2jVk/sOHD+X48eMyZswYLchz586t82Hr1q3y888/S6pUqaRXr16SJk0a8xmRu3fvyogRI6Rp06ZeCYDceVpBQFjb5+1tj2mBjp2POxER+SafqPY9fPiwJE6cWF544QUN/ABZvPr160urVq0kKChI5z0JMjwoxNu3by8TJ07UDI+jokWLSoECBWTZsmUev6ev8/Pzk/jx4+vkq3jciYjIl/hE8IeM3e3btyUwMNCcEwyBCQrupEmT6v89lTdvXkmfPr1s2rTJnPNI7dq1NRt0+vRpc07YTp06JUOHDpXmzZtr1WCHDh1k8uTJmq105f79+1otbbX1wuu+//57rcp2BcHInj17NCuF5TG1bNlSs5fuXhNZCIq/+uoruXnzpgbZqBLNnDmzPoeMK6qJsR6jRo3SdmvDhw/X7Bgm/B/znI0dO1Zfg/XGZG2LNeE98d6OcHzwnnh+wIABmonD/v7444+lSZMmug+xbyzI9Frv169fv1DHAPvceu6dd955LPD3peN+9epV3X7sI+wTBrRERPbiM9W+aJ+F6ttmzZppe7148eKZz7rmqtrXEQKLjRs3yltvvaWPUfCj/Rceoxru7NmzWjXs7+/vtvoP74HXIPuYOnVqnYeC9sSJExoI4PVp06bV+YDtQFvE7Nmzy4svvqhB64MHD2T79u0ya9YsrXrMnz9/qOo/rCOylG3atJEiRYrotuB9NmzYoG0g33777UhXSTpvH4IHBCZ475QpU5pLhYb9hf0LCExKliypwfmcOXN0ez788EPdPmcRqeLEsZw6darky5dPTp48qYFTunTp9P+7d+/WjLB1PsyYMUMDO2R3nW8I9u/fL7///rs2EUA7RvDF475z50759NNPJSAgQHLlyqWBs7W9RETk+3wi84eqXhTYzz77rPz000/SunVradeunaAdIArciGQ2ULjfuHFDC2FnVatW1baBhw4dMuc87vz58/L333/relgBACDgQCGPgAiBADI+ltWrV2uBjeDFCowQtKATCgrzgwcP6jwLgph58+Zp5g3LWEEs9gfWEYEtAjAEKZF169Yt6dGjh643AicEQU+C7BcCnbJly0rcuHFDquKxngjYvAmBG7a7S5cumrXFfs6WLZvUqVMn1I0A2oTu27fvsQweAlNk3p5//nm3gZCvHPesWbNKnjx5tJkD9keyZMnMZ4iIyA58ZqgXtDmrWLGiDBo0SKZMmSKjR4/WYBDVjMj2eLNqC8EBggoUwI6FuKNdu3ZpVsVdIIFAAJkaKwhBQY1MDwpzV1XUyGQhe+YIgQjeH+/lCuYj6MJykZUkSRL57rvvNKs0fvx4yZgxo/mMe+XKlQvVaQawbaimdxVURway1wh8ENCEBfsR64VAz/GcQM/dM2fO6P53x1eOOzKJqJKeOXOmZi1dfS4REfkunwn+nCELggK1b9++WnV34cIF8xnPIBOEjIi76uPSpUtrG7QdO3aYc0JDpgzr4A4KXAQBV65c0ccIAtBuEQWzK1jealdnQQC1cuVKefnllzWj5DxhPjopYF28CQEWgkEEGLERsl0HDhwICcBwrBcuXCjVqlVzG7RZ7HzciYjIN8T64A8FITJSKMxdQWGOghUFrKeQEUIG55lnnjHnPA5VbQ0bNpT58+drxwdnCI5QyLuDz0CQYBX6eD/0WLaCAmdY3rmqEsEp2rNNmzZNM3LuJufMUWRhn7777rshVZRo34YsUmyB9nbYJ1bvXTQNOHfunJQvX95cwj07H3ciIvINsT74Q9bm2rVrWnWGgtIZCmJMKVKkMOc8GbKEKHCfVHiiqjFLliwa/DhDI3xUJTr3GrWgSg5BgJXVQRBQvHhx7SzgajuwTshgOvJmtW5kYN08aQPoKVfBE/aJc2/fiEI2DVXEe/fu1cAPVcCoCn5S1s8S2487mkEgQ9ipUydtl0lERPbiM9W+6O05btw47YmKQhTtytDbE0OIoPrXXbWaI/R+RECAHpwtWrR44mvQKQS/RLFixYrHClF0OkB2BllJx04n+Az0tkQBjM9wHB8Pv0aCjhBos2hllZDZRGCA3rXozeoIr0UnAfT6xDo4ZqLwOnSCwC9R4G9sgWF28IssyORabQOx/hjqZdiwYWFm1cLDakuHcwZBFNqLeio2H3fsvy1btmjV/UsvvaRBLBER2UusH+oFhR06d6DARTss9LREFR4yI/hlD/T8RfUtsj0WZHrc/bwbqv7Qm9VxKA4EkKhGs5QqVUp69+6tGRwU7qh+wxAmrn7iDMEBCmkU5MhcoQcoxoxD5gWvd4aOBCjQ0VsTHRCwTggOMKTHmjVrdBw35+E5UKBj/VCNiW1HwZ4hQwZt24YOCo6/ShFeyG496efdAJ+D4VCwjdbPogGOA4YVwXiLjkOMQIUKFXScOmyjBfsTw5UgKMP24/XoNIKqVhwbK2jCNqPTAgIZV7BvnvSTc+iZiyCpVq1aGgg588Xjjp7K2GZ8J6xtISIie/GJcf6IIgIBGoYDQvtFZALtAJlHtM9EEI7hXoiIyH58trcvUViQuUPGDG397BL4IQOJMQ7xyx7OQ/AQEZF9MPgjW0KHHrTvRNWqXaAq+aOPPtIqbsdmEEREZC+s9iXbQHu6CRMmmI8eqVevnrz++utPHCCaiIjIFzD4IyIiIrIRpjqIiIiIbITBHxEREZGNMPgjIiIishEGf0REREQ2wuCPiIiIyEYY/BERERHZCIM/IiIiIhth8EdERERkIwz+iIiIiGyEwR8RERGRjTD4IyIiIrIRBn9ERERENsLgj4iIiMhGGPwRERER2QiDPyIiIiIbYfBHREREZCMM/oiIiIhshMEfERERkY0w+CMiIiKyEQZ/RERERDbC4I+IiIjIRhj8EREREdkIgz8iIiIiG2HwR0RERGQjDP6IiIiIbITBHxEREZGNMPgjIiIishEGf0REREQ2wuCPiIiIyEYY/BERERHZCIM/IiIiIhth8EdERERkIwz+iIiIiGyEwR8RERGRjTD4IyIiIrIRBn9ERERENsLgj4iIiMhGGPwRERER2QiDPyIiIiIbYfBHREREZCMM/oiIiIhshMEfERERkY0w+CMiIiKyEQZ/RERERDbi88Hf+J3j5aXpL8m9gHvmnLBdunNJqk+sLsv+W2bOebIVx1dItd+r6WuJiIiIYjKfDv4QjI3bPk5aFmopCeImMOeGbd6heeIfx1/KZiprzgnb/cD7MnLzSKmdu7akSZTGnBs9Oi/oLEmGJZEaf9SQG/dvmHMpttt3aZ/egCQfnlyPb+qvU0uhnwrJ1L1TzSWi3ncbv9PPLjC6gJy+edqcS54a/O9gfi+JKMby6eBv4ZGFEmT8q5W7ljknbNfuXZOx28fKq8VelWTxk5lzw7bxzEbZf3m/NC/Y3JwTMSgkUFigwA1rciyMR9cdLcvbLPd4XSnY8PXDdYqJzt06Jx3nddTz6WLPi3Lr/Vtyuddl2fPGHmlWsJm5VMR5uu09yvaQg28dlKzJsppz7Ofm/ZvSfGZz2XpuqznH9926f0vqTq7r8tqT7Yds8sE/H+h+cbT9/HZ9znn5rou6SlBQkLmUa3sv7ZUO8zrodQ03O+m+TSed5neS9afX63qcvXXWXJKIvMlngz8Ecj9t/UneKPmGpEiQwpwbNmT9oH7e+vr3SR4EPpARm0dIg7wNJE+qPObciEMQh2AOBT6mfpX66WQ9ZqDnHThumGIi3EwkiZ9EWhdpLfH945tzvScmb3tMgxtH7KuAhwHmHM/1qdhHlrZaGuu+rzj3FrRY8Ni1B9OBNw9IjuQ5pOWslnp9tRRPX1xOdD+hyyxuuVhKZigps5vNlo2nN8qRq0fMpR6HTHb3Rd11X+3rvE+uv3ddjnc9Lm2LtpVPVn4ip26ekodBD82licibfDb4W3xksfj7+XscyCHz9uuOX8MVLG47v032X9qvmUIib0Cg8aRsCdHTkCheIulcsrNUyFJBPl31qcvzdPKeyfJ8juelUpZKkilpJll3ep35TGg7L+zUG+ef6v0k+VPnN+cGf0bV7FVlRO0RkiFJBonj5/PN0omeCp/8Zt1+cFs7erQv1t7jQG7ViVV6l18ndx1zTthw4UOwiLZ+uVPmNuc+PcevH5cWs1po+7Bkw5NJld+qaNsxV67fuy7dF3fXZVE9g+WLjymuF+7Ah4HmUhGHAAZVOVb1D9o/4X1/3/W75BqRSz8PVTpnbp4xXxEM+3T58eW67lZ7t3yj8mn7MxxTV7AtvZf1Dql2wjY1mNJAdl3YZS7xiNVGctCaQTpZ62dNWCdUe3kDPh/rYe1jrB/WE+vrirVurWe3lrWn1krG7zKGrBf2xV+H/zKXjJjIbDuyPD2W9NAqOSxb4pcS8s9//5jPhobj9OXaL0Ot/5OOYXjhPFl6bKmuh/UZVnUhvgeOUI1ebEwxXQbn4eazm6XShEp6DuLYvPHXG3L57mVz6WDWa7ANi48u1s5c1udYE7bHmXP155PaS+JcQNtOa/lZB2aF2n847q/Nfy1UNWt4tj0qoD00rqubzmySPZf2mHODoYp2+7nt0jB/Qw3imhZoKrP2z3KZaZ6yZ0qY107UpCxpuUQyJsloziEib/LJ4A8BxMXbFz0O5HDBRacNtKnytNMG7lz/PfmvtCzcUvz8/My5Eedn/IvnH0/ixolrznlc6oSpJVfKXJIkXhJzTrBj145Jt0Xd5OPKH2v7sEs9L8l7Fd7T9koo7ByhIMf8uwF3Zf2r6+X6u9flaq+rMqHhBJmyd4oGhejEEhnYhnH1x2k1EKqO0PGmw/wOWjht67RNPxP7zXHdUKh9veFrmbZ3msxrPk+rgPB6VAehIEAw6VjVBEevHpU2c9pom87j3Y7r8tj+Xxv8Kl+t/0q3xxHaSFrr5FylhQnVXaj2iixUZ33x7xcyos4IXR+8N9avRaEWGtxhvZ1Z6zax0UR5NsuzcrbH2ZD1wr6ol6eeuWTERHTbsc87/9VZXsz7olx454Ieu5/q/iQ9l/SUmftnmksFw3mDIHH1idWysMVCudLritx876YsarlI9l7cqzcnzscwIqbumyq9lvaSvhX7huynQ28dknKZy0nDqQ1lw+kN5pKi2aMdnXboNiOo7rqwqwx5foie82jTeDvgtry14K1Q57z1Grx3rVy1QjXFsCa0iXTmWP3pSRON5AmSy7LWy3T5lwu8rFWkL894WTImzShHuxzVNp+F0haSA5cPmK8I37ZHlSxJs0iOFDnk4OWD5pxgfx/7W7epcNrC+rhS1kry37X/tF2fIwSzW85ukdKZSptziCi6+Vzwh0Bu9JbR0qpIK72IewJZv/O3zuudqicQqPyy/RepmLWiFElbxJwbOUnjJ5UpTaZoexl3EARhGedsJgquwdUGh1x00VasYb6G0qxAM81OOkL2LXPSzFqtki91Pr2Tx4SCa3LjyfLg4QOZfWC2ubR3zD04V7qW7iofVfxI1x3Bcrui7UJVya88sVKDwaHVh2oBYsG6Ybl6eeuFqmrCNn+y6hN93xo5a4QKwBHAD39huEzcNVGD9Oh08MpB3eff1PhGsifPbs41gntj/UplLKVBed8Vfb2WBYtq9wLvSbcy3TQIAhwPBBp9K/XVzlF3HtzR+YBs4InrJ+T3Rr9LiQwl9DzEdiO7M6rOKCmfubzeZEUGsnKjtozSYBY3a1aAhfMKTTbwOcjwuepli5ukSY0nyXPZntPtwHmC7w1uSnDcnjbc+PxY+0dpX7S9Zs6w/94t/66eNxCZbfcmHFM0qTl941FWE9m9+Yfm601K4niJdR6Oe+F0hfVm3BHaUmLbUiVMZc4houjmc8EfGsxfvHPR4963CCJQiLUp2sbjKoZDVw9p1g/tXxyDjqcFbWZwkXWGDJxjNSMKatydtyjcwmVnAsxDoTLzwEyvdgpAm0gU/GGZtm+aZmqtgsNZ9RzVZef5ndoIHFBYX75zWQMRV1Cwl8lURuYdDO7EE12WHFkixTIUc3vjgeAemY/dF3ebc2K29InTS+Vslc1HjyBLfSfgjgQEPeoMgQ5TuOlw1dQC35PGzzSWNSfXyJW7V8y54YeqVQQNJdKXMOeEhvlYN1c9dDHkEzLnjhAEoplCTAjGez/bO8wmJJHZ9qiG7N6hy4e0KteCY47rCap+Pcn49lvRL6Qq25q82RSDiB7xqeAPAcvoraM1U+RpIIdgEdVwjfI1Muc82YQdE6RY+mJSME1Bc07sgIIawWCTaU0eu8haE55DFvRu4F3zVdED6+WY8XOGQhoFiNVOEIV1vDhhV5PjOXftHqMK1jF5fPfbgQIR637qRnAQ60twDN9f9r7L8wpTuXHl5NCVQxo0RhT23aIjiyTtt2ldfgbmIwOFGwNfE1O2Hdn3wKBAyZwsszknuKkNbmis9pXW1GxGM23/6twGFzUMzufBoKqDQqrVUSWP5g+/1P/FK00xiCg0nwr+NpzZIHsu7vE464dgET3OcLeKNiyeOHzlsMw9NFc6Fu+od9mxSUL/hJIlWRaZ+fLMkIusq+lpDFGBwM8xS+kMHUaQUUIPQkCGEAVIWMNw4LkCaQqYj6IH1vH6fffbgYIT647j4GtQzT2s+jCX55Q1oQ0nmh1EVLrE6aRBvgZy8Z3gMRDdTY3zNzZf4Ttiyrafu31Ozt48q81GADc8yO5NfWmqy/V5rcRrIcNoAa4tyMDuOv94pywiih4+E/xZgVx4xtyzgsXwDNWC9lxohF0uk+vqxpgMwWqrwq1k+r7poRq4xwRo8I5Bud1Vv+Hn9oqmL6qNzSFfqnySOlFqtw3c0ckEPRLr53M91I+rAA2BmfMAtuFVM3dN2XFuh7bPcgVVcmjfabXPfBqiatubF2quGSBvdOpwB9XmyPhimKXo4CpDBfj+ePqTkd4S3dvuDrKPaGqSP1XwEC2ojkZGG5k6V1ATs/L4ylADNuOaix7sEflJTJyrw9YN097QpX4p5bIDFRGFzWeCP1wQ0aOwXbF25pywIVhEWz80UPZ0qBb0XMOFD239YlvWz4KG+7hwY6DWbee2hQSBuKCiKrL/yv7agza6C7Yq2apI6Yyl5dV5r2p21YJ2iuN2jJM5B+bIp899GtLGEu0TP3vuMy0EJuycEGo70B6wy8IuOlBy0XRFdb6j8lnKa6cWdDJBRhGfgd9nrvtnXf0d6LAykE+CoBQFG/Yh9i/WB7B+Cw4vkCH/DpHPq37utm1jVIvKbce+Ricj9FjFezp2BkE73P9t+Z/UmlTrsaFVwgP7bUCVAfLxio91EHe8r8Xalqq/V9W/kYUMFb4rX637KqSaHp+Hzl4YGim6fyUmOrfdFQT132/6Xnt5D35+sF4DcX7/uedPqZilotsOHGgig32JHr4WfNfRsaX93PZaJWx9TwDfFXzfERi6Gufv2v1reg6j6hm/rjTn4BzzGSLylN+mTZuCChaMXW3XnOHC0W1xN61yQ8FqBQhh2XF+h46h9UfjP7TA9gQufGtOrJHfGv7mssOEN+BuuMXMFnphc4TedZObTA415AfGbkPvXQsGTG1duLVmnWpOqhkSRGGImHmvzNMevYD9teLECvl05ae6H9CjEwVLkXRFdAgLfEZktg/ZuEZTG7mt/kTnj1kvz3qsjZ+1Xv1X9NfASdsVJc2svU1fL/G6y4AJwQrGrZu0e5IGFQn8E+gQEyicsD2u4HMm752sn4Nx2LBv86bKK93LdpdXCr7ilcAMBVqff/poBwfsXxwDDG+DIUect9v5eDlzPn6R4em2Yxy7j5Z/pP+HnuV6BrfJun9LgzsEj+DqvMS247UYWgWZXBwTVPN1Kd1FPwOZz8iyjjs6CmH/IUhAO19Ui+IctppxhPVdcN7GNkXaaE9aR8iGoiPCxN0TdVuwf5Dhwq9SVMhcIeRa86RjCLjBmfbStJA2bBgSCNcg5++6Bc1Xfq7382PtWj3d9ohwPr6OsO86FO8gHz77oe4HV9tsnSfg6r2c9zHOlQ+WfaAjLmA/YFvwk4IYS7BLqS4u2wHjHEbgPXD1QD13pzed/lhHHiIKm08EfwhgcAeJsepcZXqc4eKBYBEX1W9rfOtRsIgqi4ZTGsrAqgND9WgjIiIiik18otoX44tVyV7F4zH3zt8+r71AO5Xo5FHgB6iyyJo8q44RRkRERBRb+UTmj4iIiIg841NDvRARERFR2Bj8EREREdkIgz8iIiIiG2HwR0RERGQjDP6IiIiIbITBHxEREZGNMPgjIiIishEGf0REREQ2wuCPiIiIyEYY/BERERHZCIM/IiIiIhth8EdERERkIwz+iIiIiGyEwR8RERGRjTD4IyIiIrIRBn8xzM6dO6Vp06bSqFEjnQYMGCB37941nyUiIiKKHL9NmzYFFSxY0HwYe925c0dmz54tixYtksuXL0uCBAmkcuXKOq1atUrefPNNnQdLliyRH3/8Uf/vCM+XKVNG2rZtK5kyZdJ5169fl/79+8vRo0f1MXTr1k1q1qyp/x87dqx+rqV48eLSp08fSZQokTkn4rZu3Spz586V3r17S8KECc25MRuOw+eff65BrKM4ceJIypQppXr16tK8efOQY/E0LFiwQP/WrVtX/xIREdmJTwR/CDh++OEHKVGihDz33HMaeN27d08WL14sf/zxhxQqVEjef//9UAHUsWPHZPr06dK1a9eQ+Q8fPpTjx4/LmDFjpGPHjpI7d26dHxQUJOPHj5csWbKEBH2OrOfTpEkjDRo0MOdGXmwM/ixY93Xr1slbb71lzgneT5j/zz//hNrv0Q37FLx5rIiIiGILn6j2PXz4sCROnFheeOGFkIwbMkv169eXVq1aadDhCWSncubMKe3bt5eJEydq1g/8/PykdOnS8u+//2qg6ezq1aty8OBBKVWqlDmHXMF+LFmypB6rPXv2mHOJiIgoOvlE8IeM3e3btyUwMNCcEwzBRtGiRSVp0qT6f0/lzZtX0qdPL5s2bTLniOTJk0ff49SpU+acR/bv3y+pUqXS1zjCeu3atUuzki1bttQ2fB06dJD58+fL/fv3zaUiDlXOrtoFIqNptRkcNWqUOfcRBLDIVKL6Fcs0adJEevbsKevXr9d1jkrYh5kzZ3a5HxGk79u3Tz7++OOQdo+orkc1vbv9hW2ZPHmy7lcsj20aOnSoy/e39hcyu5jwf8dp8ODBmjF2B1XZaBKA6cCBA+ZcIiKi2MVnqn2//vprrUZs1qyZtteLFy+e+axrrqp9HSHw27hxY6hqyxkzZkhAQIAGGBYEnAiw0FawQoUK5txgK1eu1MCkRYsWUrZsWc1KIpv422+/aaD48ssvhxmUelLtG9Z24LUnT54MtQ3WvsqQIYM0bNhQ0qZNq/NPnz4tf/75p6ROnVqDm7hx4+r8iHJV7QsIUr/55htp3LixOJ53CPzQXvPs2bPyyiuvhGRwrQAaVcVvvPFGqLaUFy9elHHjxsmLL76o72Xty5s3b2rmFplY7HdnEa32dWzfiWARTQOIiIhiG5/I/CEgQJu+Z599Vn766Sdp3bq1tGvXTjNuJ06c8Lja15G/v7/cuHFDHjx4YM4RDSaQ/bGqg+HcuXMaOCEz6KxKlSoycuRI/WsFLcmTJ9dgBW0Lw8oyRZW1a9dKunTp5NVXX9UAFFXdmLJmzSo9evTQYHbbtm3m0t6DY4Dq8UmTJkmOHDkkX7585jPBkEk7dOiQVtM7BnhYt2LFimlwjSDXOpYIwqdOnaqdNtCm0zGIRqYX58CKFStcZgAjyqqyxjFERyIiIqLYyGeGeokfP75UrFhRBg0aJFOmTJHRo0drMDh8+HDN2EUkAHSG6soUKVLIf//9Z84R2b17twYzVgbNkVUliYyVVbWIoBTVkk8j8EMgi4wc9pOrzB7mIXuJjJ1zFXpELFy4MGS7kelDdS7eH1Xgzp+Pz0RwhePoCgK8I0eOaAAJ58+f1+Dc6pTjDAEgAswtW7aYcyIP64fgFZnb/Pnzm3OJiIhiF58d5w/ZI2SL+vbtqwHPhQsXzGc8g+AnWbJkoaqPEZhgKBdklPA8qjBRNYxgyrn61qpeReYJQ8XMnDlTqwx/+eUXef311yNdrRoRWOdbt27pPrGCMucJz2GoHMeMZ0TVqVNHtxkTqmeRHUUA5wrabCKr5g72L9b92rVr+hhtAJGdRWbQHTyHam8iIiJ6JNYHfwhSvvvuO7cN8FFFh84YCC48hSwh2pk988wz5pxHEPyhXRoCJAQWeN9cuXKZzz6CjBOyT6hKRZWqFaQgmMT6IHCJbvhsVPliHD4rKHM1IVj19jAsaEuI8RFRTY72e84Q+IV1jHBMkiRJoplXQCCOYDasDip4DvueiIiIHon1wR8CAGSDtm/f7rJqFxk4TFbQ4AlkCdGOD9V8zjCWX8aMGbXtHwI8tANEkOcMwSE6njhn+NBWDa8LTzD6JAhyXG27c2CEgBPjIG7YsEHXI7phX6CzDDrTOGcAUR2MDK27Xr0YGgZVvBgoGtBeEZlZd5lEdPoIa/gdnBPOsA/dVcdj+X79+ml2FE0JvNFbm4iI6GnwmWpfNP5H1SLahKEQR+CDzBx6aKL6F9m2J0FAtHfvXhkxYoT20HX1GgRQqOZFezYEUeiM4ArmY1zAHTt26LrgvZGd/PTTT7V9m7d+4QK9dhEAo9evFewh8EG7NOuXLBwVLlxY2y5+//332hnGCgKxz7Dv0D4S2x9VwSEC5Xr16sm0adNCBWBoQ4chdtBz2rGKHpld/EILhqHB8C9W9ToCSfTsxvquWbMm1HagPSCq16tWraoDczvD5+A9cTywz/AZGK4HQ70MGzbMZWCI6nsEmshg4nPdtU0kIiKK6WL9UC8ouNG5AwM8I9D6+++/tWoRwQE6CaDXJ6pvHdvkhfXzbuXLl9dBnl114LCgty+COGSfevXq5TYQQCCJ4BO9WFHti/VBAIOq6E8++USzf/gpOASngGAVnSKQNXQHmSfnIUbQcxg9m/E5qNrF+2G7kWHEeHYIWAYOHBhSBYoACcEOOi9gHZHtQrUrAjB0zMDYiBFtk4jAyfnn3ZDVw36yAl4EaggwMRQO9iM+D6z1wjAtyPRhOWRPsc8QyLnaz/g8VFU7/qyftf2uAj/A5yBwx83CmTNndFuRVcTQNzj+rj4HQSbGRuzUqZMOHu7cxpOIiCi28Jnf9iWKKlZAi8AaYy46DkVDREQU2/hMtS9RVEE1NKrEMUQNAz8iIortmPkjIiIishFm/oiIiIhshMEfERERkY0w+CMiIiKyEQZ/RERERDbC4I+IiIjIRhj8EREREdkIgz8iIiIiG2HwR0RERGQjDP6IiIiIbITBHxEREZGNMPgjIiIishEGf0REREQ2wuCPiIiIyEYY/BERERHZCIM/IiIiIhth8EdERERkIwz+iIiIiGyEwR8RERGRjTD4IyIiIrIRBn9ERERENsLgj4iIiMhGGPwRERER2QiDPyIiIiIbYfBHREREZCMM/oiIiIhshMEfERERkY0w+CMiIiKyEQZ/RERERDbC4I+IiIjIRhj8EREREdkIgz8iIiIiG2HwR0RERGQjDP6IiIiIbITBHxEREZGNMPgjIiIishEGf0REREQ2wuCPiIiIyEYY/BERERHZCIM/IiIiIhth8EdERERkIwz+iIiIiGyEwR8RERGRjTD4IyIiIrIRBn9ERERENsLgj4iIiMhGGPwRERER2YjPB3/jd46Xl6a/JPcC7plzwnbpziWpPrG6LPtvmTnnyVYcXyHVfq+mryUiIiKKyXw6+EMwNm77OGlZqKUkiJvAnBu2eYfmiX8cfymbqaw5J2z3A+/LyM0jpXbu2pImURpzbsz21+G/JPnw5JJkWBKdavxRQ27cv2E+G7bTN09LgdEFZNaBWeYc7zh365wUG1NM12fwv4PNudHjyNUjkndUXq999vbz2yXbD9lC9i/2F/abp9rPba+THe27tE9vvqzzM/XXqaXQT4Vk6t6p5hKxy9V7V6XyhMq6LbHxmEbV9z2qPc3rCVFs4NPB38IjCyXI+Fcrdy1zTtiu3bsmY7ePlVeLvSrJ4icz54Zt45mNsv/yfmlesLk5J+KcgzJr+n7T9+YS3lEvTz25/t51ufX+LZnYaKI59+nKkCSD7Oi0Q/pV6mfOiT65U+aWQ28d8tpnF09fXE50P6H7d3mb5R6fS9Fh+PrhOsVEKLA7zuuo36WLPS/q/rvc67LseWOPNCvYzFwqdkmZIKWsbrc6xnzPYruzt85K3cl19W9Ynub1hLzP0+MeEbfu39L3di53MeEm/oN/PpCb92+aSwdzvsG3pq6LukpQUJC5lGt7L+2VDvM66E0Vyvt036aTTvM7yfrT66NsG13x2eAPgdxPW3+SN0q+ISkSpDDnhg1ZP6ift77+fZIHgQ9kxOYR0iBvA8mTKo85N+Icg7Kf6v0kNXLWkAkNJsis/bN0e2KCzEkzy77O+6Rx/sbmHPK28Q3G6xQVcM5iiolwI5UkfhJpXaS1xPePb86lpymmfd8fBj2UBw8f6F+yj6g87rjmLGixQG8UMKH8taYDbx6QHMlzSMtZLUOVwY43+ItbLpaSGUrK7GazZePpjVqT5A5qMLov6i59KvbR7xXK++Ndj0vbom3lk5WfyKmbp6Lt3PbZ4G/xkcXi7+fvcSCHas9fd/warmBx2/ltsv/Sfs0UetOdB3dkyp4p0rxQc6mSvYpWLe+6sMt8lsg3BTwMeOJdMxFRdEkUL5F0LtlZKmSpIJ+u+tTl9WnynsnyfI7npVKWSpIpaSZZd3qd+UxoOy/s1GQREjv5U+c35wZ/RtXsVWVE7RGasY7jFz1hmU8Gf7cf3NaOHu2Ltfc4kFt1YpVmROrkrmPOCRtOAgSLaOuHakNvOnjloFy8c1FPiHSJ08lz2Z8LyUo+LZ0XdA6V3nbXjsYxhY42TrgLajS1kaa3MeH/Yd0ZOXJOx6MND6oGLTgGS48tlRK/lAhZxkqhH79+3FwqNJwb3238TvKNyqfLo01Zi1kt3C4fXSLSDhPrjG3N/H1mfU3ukbml19Je8r8t/5MeS3qYSwWzjt+gNYN0sj7HmrCfsb+9ATcqDaY00H2L90b1SO9lveX6vevmEqFZ69Z6dmtZe2qtZPwuY8h6YZ9g30SUc9uvzWc3S6UJlSTZ8GS6fm/89YZcvnvZXDo053MF61Lltyqy/Phyl4VA4MNALQiKjymu74/l0X4xrBs37JPui7uH7Cu8Dq/H++D9XAnPcY+op/F9D4tVzYZjgXPEOibWFNZ5gqY/uE6U+qVUyHHHfnKuyrPgeOE4Y1m8N5bH+eztG3DrOOKahc/B34ZTG2rZ1Xxm85D1s46F8zWh34p+Idvv3J4UN1KoWrSex/HD+fT7rt8l14hcum04bmdunjFfIbLh9AbJ9F0mXd5qp4x1fGXmK7p/8b1Emed47uM78uXaL0N9Z3Fs8L3Bc44i8l2MzHH3FvQBQCyx6cwm2XNpjzk3GKpot5/bLg3zN9QgrmmBplpT56p2BQmdsOIF1B4uablEMibJaM6JWj4Z/OHifPH2RY8DOZyk6LSBdkWedtpAFP/vyX+lZeGW4ufnZ871DqSGS2QoIVmSZtHHyF6uPL4y2toCuDK67uiQVPjLBV425z7OSqGjjRMu+u3mtNNqPLThOv32aSmcrrBeqDzpGZ04XmLpULyD9CzXU670uqJteHBnZJm6b6oWen0r9pWzPc7quqHtXrnM5fQiiouZI6TtEejhorbu1XW6/Knup6TpM02l1axW2ubiaQlvO0zsP6xzkfRFZG/nvfo6VCPUzFVTvtnwjVy9e9VcMph1/FxVbWDCMcOxiyycu1/8+4WMqDNC2+vhvY93Oy4tCrXQ4O7o1aPmko9Y64btfjbLsyHHEhP2CfZNRDm2/ULh0XVhVxny/BC52uuqHHzroNwOuC1vLXhLs+uOcK50nN9RUidKrfvVWpe/XvlLlh5dKkPXDQ1VCOL1COLmH5ovc5rNkRvv3dBz/rMqn+n8KXunmEs+gs9AIX834K6sf3W9XH/3uq7XhIYTdHm8znm9wnvcI+ppfN/DYlWz4ZjhHMFfa/0whXWeTN83XSbtniQr267U43K061FJEi+JNJvR7LEbrHWn1ukxaVW4lS6H98Y1ol3RdhpMeavjkX7OjOYaDKDaD5+j1X9F2soXa76Qy3cua9AKOBau2g4PqjpIX4dz21ncOHFlXP1xIc9j/3eY30GDuW2dtum5hrILAZgF180zPc7ovkV1/4x9MzQg++DZD/T6u7HDRn39tfvB1Z84NxFErz6xWha2WKjL3HzvpixquUj2Xtyr11rHqtKIfBcjc9y9CWVxjhQ55ODlg+acYH8f+1uSJ0guhdMW1seVslaS/679p+36HCGQ33J2i5TOVNqc8/T5XPCHQG70ltHSqkirUIFCWJD1O3/rvEbtnsBF/5ftv0jFrBWlSNoi5lzvwJdlzck10ih/o5Cgslj6YvrFx8kTmxy7ekyGvzBcG/CjDVfS+Enlw2c/lERxE4W66LiCC8DANQP1ItK/cv/H2oDhLnLUllF6YUTQbl0YkelF1f2oOqP07tLx4o476iLpisiQakNCgnzcreH14xqMi3VV6+jBXj5z+ZDsNvZR3Tx1pUfZHnpBim7IWCMz8E2NbyR78uzmXNHzuFTGUvJehfek74q+j2UEosuxa8dkUuNJ8ly25/RuHufA4GqDtUDDulvw/R62bpguh8IYy1pwDuN83H1xtyw+uticK5pZun7/uvzy4i9aSACOB95j2kvTtEBwhiwMCllU9+RLnU8/BxMKvMmNJ2sbp9kHZptLPxLTjrslMt/3qJQ2cVr5usbXuj6A/Yb1CgwK1CDEgvMSnaE+rvyxvFnqTUmbKK3Ot64Rfzb5U68hro5leODa1Wd5H/mm5jf6vnh/sD5nbP2xej3zM/55y9yDc6Vr6a7yUcWPdPvxnURA665ZFDKCh68elhlNZ+h3F+dltuTZ9NxHJyb4579/5MT1E/J7o981WYFjjvdFZgvXX5yjSKq44ul3MabAdqEZ2ekbj0ZtQHYPN3sIPpGoAGw7bniQgHKEQB77J1XCVOacp8/ngj80GkeVqae9bxFkoIdvm6JtPE63Hrp6SLN+aAtgBWjegsAP8MWx4EJQL289LSxiamN9V6rnrK5tJRxhf6FBa1gBAO5S28xpo18WV4EfoDoAX6QS6UuYc0LD/Hj+8WTrua36GEHg30f/DhVUO8qbMq9eiGILXCx/b/i7/LLtl5Dqv+w/Zpd6f9aT8lnKyw+1fjCXjD5LjiyRYhmKub3pQqNo3AEjcHoaMORTrpS5zEfBUPCgiszxfMT1A1U8yMq4gvMRnbxQNYtAERMyQo3yNXJ5ruJYOReyaNeLrEGLwi1cvgbzEAjMPDAz1Hc+Jh53S0S/71GtWvZqIYGyxdV6Hb12VG++0dHOFRTsOH8wrmtkoIxKnzi9lMlYxpwTGrJHM1+eGRKsegPapTuWKU+SJVkWeb/C+yFBjStoitQwX8PH9i1g/zZ+prGWZ1fuXjHnPuLpdzEmQ3bv0OVDoa4T2G58bz3tpOlYdW9N3myCExafCv5wkRy9dbReaD0N5PBFRFUULtyemrBjgmbjCqYpaM7xDhQiuJNA9aN1YbemPv/00QIJd0a+DnfXOJYnr5/U7IcruEAsOrJI0n6bNtR+sibMx75E9Qkg+Lv14JbevbqCL61jI9zYAI2Lx7w4RqvXUAWC6lUU/p+t+kzmHJxjLhV9cLFLHt995gn7GMft1I1T5pyYCeccCqGwCj7cWCDrcfPBTZ1Q3ZozZU7z2ccVTBv6WhEQFKDt/ZpMa+Ly/MWE51AjcTfwrvmqYDHtuPsKnJu7zu+SnCNyujwemJAoiOz5i3MrYdyEeg7FZjh/31/2vsv9hKncuHJy6MohuRNwx3xF7IWyGZnizMkym3OCm5fhRtZqx2hNaE6AWiTnmiRcV5z3hVV1j8mq2v6l/i9eaYLzJD4V/G04s0H2XNzjcdYPAQZ63yByt6pqnuTwlcMy99Bc6Vi8o9e/vGgzg67ia9uvDTkhrAntIlAdZGUGfdnbZd7W6gYEau8seeexdk+AjjAN8jWQi+8EjwfnbrKGqED2FO18UGC7gi/3gcsHzEexFxoNo9rq6/Vfy4XbF8y50QMZAFR9uoN9jIAKWYWYLF6ceNpmKqwMBK4dOD+TxkuqU8qEKbXa0x00X3CU0D+h7gdkeFydt9a0tNXSkCYNYXmax91XpE6YWqs4j3U95vJYWBOG6YgMnFto5+mY0Y2N0LRjWPVhLveRNaE9Kpo2xHbnbp+TszfPavMMwI0usntTX5rqcrtfK/FaqE6a+A4j04mbi5jCZ4I/K5ALz5h7VrAYnqFa0KapUNpCUi5TOXOO9yCwQxDqKqOIQBNpdDQEjy1p8YjCxRFZInT0QLCAhuwIHByhChGFNIbb8QS+fC/kekHbUDm/F6AqH20/Ywu0TXLXAzOBfwKtQnHHVYCGfeKu96OnauauKTvO7QjVI9sRquBRlWU1jo6p0NarTKYymll2BTcjuAFEJxacp1ZVz+yDs13eqKAZg3NvfXyf0akAnRFcvcadyBx3X4EMiqtrIH7CMzz70hmqdZGhRfvNqFQ0XVE5eeOkbDq7yZwTGnq81plc57FerMg8ubp2IZP4NGAoMmS/PKne9IaoOu6ewLUANUP5UwXXDqHZEb73yNS54qqTJuIMHNOIdH7CcUc7ZPRuRq91Vx3nwstngj8EAbi7blesnTknbAgWkcJHY013Xa+doaEvTgK09fN21g8nNQI7BHju3htDv6D9BFLpdoB2T19U+0KzdT9s/iHUhQ9B4YAqA+TjFR/rYN5op2VBeyq0y6n6e9VQ7XPaF22vqfgPl38Y8gXEsmiv1WFuB+0MElvg/P16w9fy3t/vhbrAoOBAVQx6uiM76gztwhAArzyxUod+sPZV3T/r6m9guxuOxRP5UuXTCxzaa247ty3keOHCvODwAhny7xD5vOrnYVanxgS4qKO90/L/lmvPZcegGPsa2WgEsLVyPfrlILQTQ5X3a/NfC+kQgO3GDcXLM152WbOA16NAwQCy2F9WAYb9hqrF/iv76750/F3yiB53X5EqQSpt94ihRBB0WPtqyNohkv9/+SNV7Y3jjuwpernqgLvG+zqewzhGGLoG5UZk4Fx4p+w72rMV5Yk1pA+2Bx0Jy48rr50GHNse4jxBkIdmStbyuIahty2ayTwNCGKbFWim5zeuIbiWWHA9xtBDtSbVcjuUUnhE5XEPCz4Lv7A1c/9MGfz8YC2b8dl/7vlTKmap6LYDh6tOmqUzltYyCL3fUQ5Z5xbg/JpzYI4e0zguxvlDD2tct3EDgF8U88b2+m3atCmoYEHvtl2LbtiJ3RZ302onFC74Ej/JjvM79EL9R+M/tNDyBE6CNSfWyG8Nf3PZSDuicBdR/8/6ob4kGAiydeHW+n9kUmpOqqlVzhYERejdF16uPstZmyJttBetBV+4j5Z/ZD56HHpBTW4yWQNpNFTFxQDBhfNzuOtpMbOFnsBQJVsV7QmJ9g2O24ihAKyqFef1dV43BCsYt27avmn6HvjioL0nqoSxf5wLXQTZP2/7WX7c9KMO+YJsCX7+b2j1oTJx10R9L2u8JU97iztydaycOW43ROSYIAOEbUFVAnq3I4ONwiFvqrzyYcUP9aLs6nuA78rkvZOl/4r+uv04PnhN97Ld5ZWCr3glMMOFDW1Ukcm+F3hPq9MwrASOq3Nv1CftL7x23ivztMlDRDi/v+P7OZ/XzvvY+VzBvkKvxgFVB0jVbFUf278olDH8EDJzaMKB3prIIH5f63u9YcNQN87bg+Ox4sQK+XTlp3pNwv7CMcCNCM5ffG8crzURPe7hER3f98hAT9SeS3vqQP7YX7juo+lO72d7h9SaOB93tJPELzHgRv9J62UddwQvyNChYwgCjxdyviDvln9XA//I7mPA9wT7GT2O8Zk47sgk4dpXIXOFxz4DgQTGBURvWNR6oGMIAhL05MV1y/HcwjBXCFTdNcNA549ZL88K+T7iHHr9r9ddDkkEOK7oyY4MtzPn7cA1Fednl9Jd9JpidVyJzHcRPDnuEeF8DjvCOmK4MfQOx/Fxdb1CDRXa7oGr93LeFuyvD5Z9oDeGOAdRZmVNllXHEuxSqovLHvu4TuC7P3D1QP2uT286/bEOM+HlE8EfLpqIpjE+Fu5GnsQKFlG9+G2Nbz36IuMuu+GUhjKw6kC3vQCJiIiIYjqfqPbFeEP4GTRPx9w7f/u87Lu0TzqV6OTxHRzuurImzxqrhgMhIiIicuYTmT8iIiIi8oxPDfVCRERERGFj8EdERERkIwz+iIiIiGyEwR8RERGRjTD4IyIiIrIRBn9ERERENsLgj4iIiMhGGPwRERER2QiDPyIiIiIbYfBHREREZCMM/oiIiIhshMEfERERkY0w+CMiIiKyEQZ/RERERDbC4I+IiIjIRhj8EREREdmIzwV/x44dky5duujfsOzcuVOaNm0qjRo10mnAgAFy9+5d89mwXb16VT9j69at5hyKSaZPn67HFMcIx8oX3bt3TwYPHhxy/mJ60vkYmXM+ul28eFHefPNNXc+5c+eac4mIyBv8Nm3aFFSwYEHzYeyHoG/o0KHSu3dvyZkzpzk3bCg0UcDgNQkTJjTnuoeA4qOPPpLXX39dSpYsac71ngULFujfunXr6t/IePjwoU5x48Y154gEBQXJ/v37ZeLEibJnzx4JCAiQTJkySfv27WXHjh3y7LPPSrFixXRZBBlff/21rFu3Th87Sp06tdSpU0caN24sCRIk0HkIMD799FN9z/z588vHH38syZMn1+eWLFkiP/74o/4f8PqBAwdK1qxZzTneg2P0/fffy9tvvy0pU6Y054bfgwcPJF68eOajqOG4zxx169ZNatasaT5yDwEczvkGDRp4fD6Gdc47HvM4ceJI9+7dpXr16vrc9evXpX///nL06FF9DAjQOnbsaD7yLivww7YREZF3+FzwFxHhDf6imjcKPAR4e/fulZ9//llefPFFqVGjhvmMyMaNG2XhwoXSoUMHyZw5s/j5+cnJkydl5MiRcuDAAenXr99jQYSrdUJgtGrVKjHOIQ0QEiVKpPMRjCDwwnsieHHeDuxvBBZvvfWWOcf7vBH8Yft++OEH/f+rr76qwWpUw35ZvXq1PP/88zJv3jw9J6396o63gz8LlsH5kypVKunVq5ekSZPGfCb4M0eMGKGZRE9vsiLCG98FIiIKjW3+fNDly5flm2++kT/++EPee++9UIEfApp///1XXnnlFc24IbOD4C9btmzy7rvvajDoKWTEqlWrJrh5QFUrAk6Lv7+/vPzyy7J27Vo5f/68OTd2wfYh+1amTBkNiBGM3b9/33zW+3BsEPhVrlxZnnnmGX186tQp89mno2jRolKgQAFZtmxZqONLRESxl08EfxFp/xQRY8eODfUZVlbCHRSW+/btk08++USaN2+uWZL3339fs2WjRo2SXbt2mUsGs95/zJgxOjl+FiZsI7bVHQQmCFAQqKDqFm26smTJYj4bDFXAyNq4eh9kdooUKaKBm6cQPCJYwXaeOXPGnBsse/bsmolatGiRR4GDtb9QVWy1TUO7L1QXuwu6EBwh64X9ay2PgNPd5925c0fGjx8fsnyTJk2kZ8+esn79et03zuLHjy9VqlSRr776StuhffDBB1pVHhWBEILkK1euaOCXNGlSrXrfsmWL+ezTU7t2bf0+nT592pwTNudjggzz5MmTdd+7gmOLY2y18cPrkLXFTYwr2Pc4BshGYnlMLVu21O+Mu9fg2OIY4/uHcwufge8lMq3fffddmNuGavm2bdvqhMw4EVFs5xPBH9qb9enTR2bPni1//vmnlC5d2nzGu9CuCZ+BCW3dngSBzE8//SQtWrTQLByyYwjIUCX5zz//aGbHkfX+nTp10sn6LGvCNlpt6xxZhSECEwQoCFQQ/CEwc4bXo/0WqjNXrFihbbisQAYZwM6dO4e09/MUqlXRZvDcuXPmnEfwWdgP//33nznHNawDgkQUxmhPiX2FbUZVdIYMGTRYdg4eUN2MqkcU/gguZs2aJYMGDdLq7l9++eWxgBGvR1s27He0PZw5c6Z+DjKeyLghKHRud2dB1SuqfpFJxbFEZtVdoBFRCE7y5csXUk1dqlQp2b59ux6jpyl9+vR6Pv31118SGBhoznUNxwT7FefvlClT9BjipqZixYp6zuH8dIRjguAL+3L48OG6PNqiYnkcK1fBFj4D36tWrVrp9936DOw7HH9Xnb1ww4X179Gjh0ydOlXXDccd3xsE2GFldNFMAscAE84TIqLYjtW+USxt2rTaJsrqcIEgAoFj+fLlvdKR4MKFC6GqeBGgPKmNWNmyZeWzzz6Tw4cP62tQPYuMCLIvYWUW3UHQiEATWStnyCa+8MILMmfOHLeBFaCQP3TokBbojuuP90UwiqpXx6plFMSLFy+Wd955RzNlVvU19jcyTTly5HgsOENGMF26dLqPENDgNZhQ/Y2gAIHNtm3bzKVdQyYVATyCIW9WBSMIQoYJ24ntAKxXkiRJnhg4R4eqVavK8ePH9Ri5g8zl33//Le3atQvVPhLbgyywFaQ77i8EU/h+IBOHbCfge4H9gPaaBw8e1HkWHHfsc7QxxTJWe0WcM1jHrl276nmC7LYzHLuMGTPqMQd0RMLn5s2bVzO87iB7nThxYl0eWW4iotiOwV8UQls4BFZDhgzRQgbVTRh+ZNKkSVrFhSrWyECWDIUdGuSjt6hzFW9YkKlDphEZFGRPEASigwY6ADhX30ZWuXLlNDBEBtAdbAsKWXeFcKFCheTIkSMhQ7cgCMF2I5hzhmADAW6yZMnMOcHt6VB1iYySY89nC+ZVqFBB1+NJ2S0EDwj+0FMZbeGGDRsmN2/eNJ+NGCuoypMnj/4FBDbYDmRon7ROUQ2BD25awgp20YwhV65cIb27nSEARJBrVbEiQENm0zHgdYRj69yBBQEo3h/v5Qrm41hiOUeousd7IXtuVfsi4EcGHhnzsNq64nX4zv7222/ag52IKLZj8BfFUFggy4ZqJmQkUN1YokQJrQJzlSkLDwQrqPbE+yD4i2jnABSWqFpFRgyZDVSRhQeycWhThWDMFWR00OMY2T9XGRm4ffu2ZlfcQXBw69YtuXbtmj7GtiIz5ipoAFSdImtmQfCE1/ft2zeknZjzhOeQLXSujneGbUUWEW0TUa2NrKmVtYoI7L/Nmzdr9SOaCDiuE84XVE16u4o5ItCcAplhDAfkCvZvWFlnHCsEf9Z5j3MBx93deYPlnYMyHJuVK1fqTZXjfrImzEdAjnVxhPdCII1AHd9DfB/RPAI3COjRjPUiIrILBn/RDFkjVGMWLlxYg6HIQnYEHRZQXYo2U7/++muYBRmyMwgoXGWSUECiCuzSpUvmHM/cuHFDX4MA0h1sM9obIshxBYEfAgF3ECAhmEuRIoU+RpYTmUqrGtgZMoSOAQCqErGvPv/8c20j5m7CGHZhDfeDoBPLIPhD+7L69euHWWXoCbSDQ1YU7Rud12fGjBl6AxETOhpgvzRs2FDmz5/vMtOJ4xPWuYdjheDQCvbwfjju7m6CsLxzRwwEa2hGMG3atMf2lePknDF0BTc9qCrGXxxPIiK7YPAXRZAhQYN1d780ElaAAa4KURSGrtrkIWhDteiXX36pbd7QkB2Fmaveq8icIAB0F+AhoArvoMtoq4ahYsIK/hAgoboN7fSs7J0jZDFRLeuuShHZr9y5c4d0hkCQiqABbR6dYT+hkT6CUgt6MD/33HOyYcOGMNseuoPjgcAaATYCbQTc3hr3D4Ed2qJhcob1xr5Zs2aNV9oWRhaaMiDwRvW4MzRjwODP7jqooCoWwZ+VzcN3oHjx4tqBw1UQj2Pr3GvfXbVuWLA+X3zxhdsg01UnKguOO9p2IquIYx8TjgERUWQx+IsiKMyQHcGQFwjEHKsS0Ygd2ROMkecKAhtUvSIoQACH1+IXOTDUC6qt3GVXEGAhE4WMFD4TGSpXVcEoVNFpAUGbtV54z+XLl2vVo6eN2vEadBJBIIDqyicNEYNOGNg29Lp0huwWnkOvXseADuuHfYGesAgeEegC2n3VqlVLvv32W9032E/Y58iijRs3TjtJOAdnyLYi8MAwIidOnAgJAvE6ZAqRZUM1umNwaFXxIqBGYI0AG4G2tR6RhWACgR0CPHf7Dx1aEDC7CnSjG9YRvzyDdojO5xY60SArh9672L9WQIf9iXMN+xfniWOmFOcabpBQDWtlE3HMERDiOKEHryO8Fu310CMY6+CYgbS+Jzjv8deCY4ibGhy73bt3hzruuBlA1tVdphDbiLamOJeaNWsW6SwvEVFM4BO/8IFhHlDV4w4u3I4/I4aCAO21wmpHhTt9x5+scv5pMmfIRqDdHQbFBWTo/ve//2mAhyDOKiyR7cAQHm3atNFOF65YhRKCGHS+wHsj64UqN/QS9qQAwntYv/CBsezQ4B2Q9UOwhiwYeghjGawr9hHGc8N2O7bbsjKYrjI9eA1+ecGx6tN532Ld0cgejfoBPUJROCPj4/wLH1hnVz87h6AP1XOuthv7FMsjWMC6Wj9Th4GJ0YYPzzv+TJr1GWjAb207qh4RfOJn6nD8sM6A4BbtwvB8VPzCh6vzEPsKgSAgY4V95fhTata2RPU57/z+OGetXxvBPkS1K5ot4DOcf+HD+Zi4O7csCIDx/UBbPJzvyMQhKMR3BIExxu9DRxLcsFidSXBssH5o34chhtCcAplnnNfomOL4ayTYjwjqcXwRyONcxmvQhADfCwR1VnMCZwhYMQQQhq7Bee6toJ+I6Gniz7v5OCvLYQU0FD7IJnljSB6KfRBgoo0ojr8nP7NHRBRbsNrXxyHoY+AXcQz87AvV7GgOgF8PYeBHRL6EmT8iIiIiG2Hmj4iIiMhGGPwRERER2QiDPyIiIiIbYfBHREREZCMM/oiIiIhshMEfERERkY0w+CMiIiKyEQZ/RERERDbC4I+IiIjIRhj8EREREdkIgz8iIiIiG2HwR0RERGQjDP6IiIiIbITBHxEREZGNMPgjIiIispFoCf6uX78u77zzjvTv31+uXLliziUiIiKi6BYtwV/y5Mnl66+/lsKFC8ucOXPMuUREREQU3aKt2jdOnDiSP39+uX37tjmHiIiIiKIb2/wRERER2UiMDv527twpbdu21enAgQPmXCIiIiKKqBgd/G3cuFE7i2BavXq1OZeIiIiIIipag79kyZLJsWPH5Ny5c+acsJUsWVISJ06sHUYqV65sziUiIiKiiPLbtGlTUMGCBc2HUevhw4cyceJEmTVrlnTt2lWqV69uPkNERERE0SFaM39HjhyRXbt2yciRIxn4ERERET0F0Rr83bhxQ3LmzCkZMmQw5xARERFRdIqxHT7u3Lkj/fr1k0aNGsnw4cPl/v375jNEREREFFExNvg7deqUVhOnTp1amjVrJvHjxzefISIiIqKIirHB344dO+TWrVvy0ksvSfbs2c25RERERBQZ0Rb8odoWnT08ae+HKt8tW7ZIqVKlpEaNGuLn52c+Q0RERESRES3BHwZp7t27txw8eFCef/55c657Fy5ckKtXr0rLli0lUaJE5lwiIiIiiqxoHeePiIiIiJ6uGNvmj4iIiIi8j8EfERERkY0w+CMiIiKyEQZ/RERERLYh8n+Z4FkSI/D20QAAAABJRU5ErkJggg==;" vertex="1" parent="1">
          <mxGeometry y="290" width="629.55" height="400" as="geometry" />
        </mxCell>
        <mxCell id="_IsiIi9J9AR4bLTN5a5e-4" value="与lowering 相关部分的成员" style="text;html=1;strokeColor=#666666;fillColor=#f5f5f5;align=left;verticalAlign=middle;whiteSpace=wrap;rounded=0;fontSize=18;fontColor=#333333;" vertex="1" parent="1">
          <mxGeometry y="260" width="310" height="30" as="geometry" />
        </mxCell>
        <mxCell id="_IsiIi9J9AR4bLTN5a5e-5" value="与架构相关的lowering" style="rounded=0;whiteSpace=wrap;html=1;fillColor=#dae8fc;strokeColor=#6c8ebf;" vertex="1" parent="1">
          <mxGeometry x="660" y="310" width="330" height="30" as="geometry" />
        </mxCell>
        <mxCell id="_IsiIi9J9AR4bLTN5a5e-7" value="处理函数调用约定" style="rounded=0;whiteSpace=wrap;html=1;fillColor=#dae8fc;strokeColor=#6c8ebf;" vertex="1" parent="1">
          <mxGeometry x="660" y="350" width="330" height="30" as="geometry" />
        </mxCell>
        <mxCell id="_IsiIi9J9AR4bLTN5a5e-9" value="" style="endArrow=classic;html=1;rounded=0;entryX=0;entryY=0.75;entryDx=0;entryDy=0;" edge="1" parent="1" target="_IsiIi9J9AR4bLTN5a5e-5">
          <mxGeometry width="50" height="50" relative="1" as="geometry">
            <mxPoint x="540" y="338" as="sourcePoint" />
            <mxPoint x="650" y="278" as="targetPoint" />
          </mxGeometry>
        </mxCell>
        <mxCell id="_IsiIi9J9AR4bLTN5a5e-10" value="" style="endArrow=classic;html=1;rounded=0;entryX=0;entryY=0.75;entryDx=0;entryDy=0;" edge="1" parent="1">
          <mxGeometry width="50" height="50" relative="1" as="geometry">
            <mxPoint x="540" y="367.5" as="sourcePoint" />
            <mxPoint x="660" y="362.5" as="targetPoint" />
          </mxGeometry>
        </mxCell>
        <mxCell id="_IsiIi9J9AR4bLTN5a5e-11" value="" style="endArrow=classic;html=1;rounded=0;" edge="1" parent="1">
          <mxGeometry width="50" height="50" relative="1" as="geometry">
            <mxPoint x="270" y="460" as="sourcePoint" />
            <mxPoint x="690" y="460" as="targetPoint" />
          </mxGeometry>
        </mxCell>
        <mxCell id="_IsiIi9J9AR4bLTN5a5e-12" value="DAG图的入口节点" style="rounded=0;whiteSpace=wrap;html=1;fillColor=#dae8fc;strokeColor=#6c8ebf;" vertex="1" parent="1">
          <mxGeometry x="700" y="430" width="260" height="50" as="geometry" />
        </mxCell>
        <mxCell id="_IsiIi9J9AR4bLTN5a5e-14" value="DAG图的根节点" style="rounded=0;whiteSpace=wrap;html=1;fillColor=#dae8fc;strokeColor=#6c8ebf;" vertex="1" parent="1">
          <mxGeometry x="695" y="520" width="260" height="50" as="geometry" />
        </mxCell>
        <mxCell id="_IsiIi9J9AR4bLTN5a5e-15" value="" style="endArrow=classic;html=1;rounded=0;entryX=0;entryY=0.5;entryDx=0;entryDy=0;" edge="1" parent="1" target="_IsiIi9J9AR4bLTN5a5e-14">
          <mxGeometry width="50" height="50" relative="1" as="geometry">
            <mxPoint x="220" y="550" as="sourcePoint" />
            <mxPoint x="640" y="550" as="targetPoint" />
          </mxGeometry>
        </mxCell>
        <mxCell id="_IsiIi9J9AR4bLTN5a5e-16" value="&lt;span style=&quot;color: rgb(0, 0, 0); font-family: &amp;quot;PingFang SC&amp;quot;, &amp;quot;Microsoft YaHei&amp;quot;, &amp;quot;Helvetica Neue&amp;quot;, Helvetica, Arial, sans-serif; font-style: normal; font-variant-ligatures: normal; font-variant-caps: normal; font-weight: 400; letter-spacing: normal; orphans: 2; text-align: left; text-indent: 0px; text-transform: none; widows: 2; word-spacing: 0px; -webkit-text-stroke-width: 0px; background-color: rgb(255, 255, 255); text-decoration-thickness: initial; text-decoration-style: initial; text-decoration-color: initial; float: none; display: inline !important;&quot;&gt;&lt;font style=&quot;font-size: 20px;&quot;&gt;DAG体现了节点间约束的关系, 而IR只能表示节点的数据流图. 为解决这个问题, 对应IR中的Value/Node/Use类型, LLVM重新设计了SDValue/SDNode/SDUse类型&lt;/font&gt;&lt;/span&gt;" style="text;whiteSpace=wrap;html=1;" vertex="1" parent="1">
          <mxGeometry y="720" width="760" height="60" as="geometry" />
        </mxCell>
      </root>
    </mxGraphModel>
  </diagram>
</mxfile>
